SplineFontDB: 3.0
FontName: FifthLegWide
FullName: FifthLeg Wide
FamilyName: FifthLeg
Weight: Bold
Copyright: Designed by Jakub Steiner <jimmac@gmail.com> with FontForge 2.0\n\nhttp://jimmac.musichall.cz\n
UComments: "2008-8-26: Created." 
Version: 0.1
ItalicAngle: 0
UnderlinePosition: -100
UnderlineWidth: 50
Ascent: 800
Descent: 200
LayerCount: 2
Layer: 0 0 "Back"  1
Layer: 1 0 "Fore"  0
NeedsXUIDChange: 1
XUID: [1021 505 18653696 15144852]
FSType: 8
OS2Version: 0
OS2_WeightWidthSlopeOnly: 0
OS2_UseTypoMetrics: 1
CreationTime: 1219742876
ModificationTime: 1220023805
PfmFamily: 17
TTFWeight: 500
TTFWidth: 5
LineGap: 90
VLineGap: 0
OS2TypoAscent: 0
OS2TypoAOffset: 1
OS2TypoDescent: 0
OS2TypoDOffset: 1
OS2TypoLinegap: 90
OS2WinAscent: 0
OS2WinAOffset: 1
OS2WinDescent: 0
OS2WinDOffset: 1
HheadAscent: 0
HheadAOffset: 1
HheadDescent: 0
HheadDOffset: 1
OS2Vendor: 'PfEd'
Lookup: 258 0 0 "kern"  {"kern-1"  } []
DEI: 91125

StartChar: b
Encoding: 98 98 0
Width: 510
VWidth: 0
Flags: W
HStem: -3.89551 113.896<243.125 339.787> 310 113.923<249.219 339.965> 590 20G<142.5 170>
VStem: 60 110<0 40 120 310 375 565.439> 340 110.031<110.004 120.5 120.5 310>
LayerCount: 2
Fore
SplineSet
170 610 m 1
 170 375 l 1
 300 420 l 6
 309.378 422.679 318.935 423.923 328.457 423.923 c 4
 390.007 423.923 450.031 371.954 450.031 319.938 c 6
 450.031 100 l 6
 450.031 48.4922 389.883 -3.89551 328.266 -3.89551 c 4
 318.808 -3.89551 309.315 -2.66113 300 0 c 6
 170 40 l 1
 170 0 l 1
 60 0 l 1
 60 490 l 2
 60 570 115 610 170 610 c 1
180 310 m 2
 175 310 170 305 170 300 c 2
 170 120 l 2
 170.244 115.355 174.554 109.992 179.654 109.992 c 0
 179.769 109.992 179.884 110 180 110 c 2
 330 110 l 6
 335 110 340 115 340 120.5 c 6
 340 300 l 6
 340 305 335 310 330 310 c 6
 180 310 l 2
EndSplineSet
Validated: 1
EndChar

StartChar: h
Encoding: 104 104 1
Width: 472
VWidth: 0
Flags: W
HStem: -0.03125 21G<60 170 320 430.031> 310 114.444<238.75 317.518>
VStem: 60 110<0 310 375 565.439> 320 110.031<-0.03125 309.996>
LayerCount: 2
Fore
SplineSet
170 610 m 1
 170 375 l 1
 280 420 l 2
 288.304 423.02 297.521 424.444 307.184 424.444 c 0
 361.523 424.444 430.005 379.421 430.031 319.938 c 2
 430.031 -0.03125 l 1
 320 -0.03125 l 1
 320 300 l 2
 320 305 315 310 310 310 c 2
 180 310 l 2
 175 310 170 305 170 300 c 2
 170 0 l 1
 60 0 l 1
 60 490 l 2
 60 570 115 610 170 610 c 1
EndSplineSet
Validated: 1
EndChar

StartChar: m
Encoding: 109 109 2
Width: 690
VWidth: 0
Flags: W
HStem: 0 21G<60 170 289.969 400 519.969 630> 310.062 114.313<216.406 289.965 446.43 519.965>
VStem: 60 110<0 310.062 384.125 420> 289.969 110.031<0 310.062> 519.969 110.031<0 310.062>
LayerCount: 2
Fore
SplineSet
292.438 424.375 m 0
 292.668 424.375 l 0
 332.157 424.375 364.263 405.342 382.75 377.438 c 1
 490 420.219 l 2
 501.334 423.053 512.267 424.376 522.684 424.376 c 0
 585.797 424.376 630 375.791 630 320 c 2
 630 0 l 1
 519.969 0 l 1
 519.969 300.062 l 2
 519.969 305.062 514.969 310.062 509.969 310.062 c 2
 410 310.062 l 2
 404.785 309.885 400 304.874 400 299.925 c 2
 400 0 l 1
 289.969 0 l 1
 289.969 300.062 l 2
 289.969 305.062 284.969 310.062 279.969 310.062 c 2
 180 310.062 l 2
 175.062 310 170.062 304.938 170 299.938 c 2
 170 299.938 170 99.9746 170 0 c 1
 60 0 l 1
 60 420 l 1
 170 420 l 1
 170 384.125 l 1
 260 420.219 l 2
 271.25 423.031 282.09 424.355 292.438 424.375 c 0
EndSplineSet
Validated: 1
EndChar

StartChar: a
Encoding: 97 97 3
Width: 493
VWidth: 0
Flags: W
HStem: -5.53777 113.165<153 238.874> 168.201 100.012<153 264.094> 310 110<138.182 320.916>
VStem: 43 110<107.627 168.201> 323 110<0 37.6562 107.627 168.201 234.938 307.916>
LayerCount: 2
Fore
SplineSet
183 420 m 2
 273 420 l 2
 373 420 433 360 433 260 c 2
 433 0 l 1
 323 0 l 1
 323 37.6562 l 1
 177.484 0.0136719 l 2
 162.678 -3.76671 149.199 -5.53777 136.997 -5.53777 c 0
 71.735 -5.53777 43 45.1271 43 110 c 2
 43 182 l 2
 43 239.475 76.8815 268.214 134.898 268.214 c 0
 148.061 268.214 162.466 266.734 178 263.775 c 2
 323 234.938 l 1
 323 300 l 2
 322.875 305 317.875 309.875 313 310 c 2
 113 310 l 1
 113 310 112.993 310.357 112.993 311.031 c 0
 112.993 322.178 114.932 420 183 420 c 2
153 158.201 m 2
 153 117.877 l 2
 153 112.871 158.243 107.627 163 107.627 c 2
 323 107.627 l 1
 323 168.201 l 1
 163.25 168.201 l 2
 157.744 168.201 153 163.707 153 158.201 c 2
EndSplineSet
Validated: 1
EndChar

StartChar: u
Encoding: 117 117 4
Width: 510
VWidth: 0
Flags: W
HStem: -1.54464 111.593<170 285.218> 400 20G<60 170 340 450>
VStem: 60 110<110.048 420> 340 110<0 31.5938 110.048 120 120 420>
LayerCount: 2
Fore
SplineSet
60 420 m 1
 170 420 l 1
 170 120.08 l 2
 170 115.08 175.031 110.048 180.031 110.048 c 2
 330 110.048 l 2
 335.127 110.048 339.912 115.139 340 120 c 2
 340 420 l 1
 450 420 l 1
 450 0 l 1
 340 0 l 1
 340 31.5938 l 1
 210.146 4.24219 l 2
 189.993 0.336646 172.208 -1.54464 156.595 -1.54464 c 0
 86.2342 -1.54464 60 36.6656 60 100 c 2
 60 420 l 1
EndSplineSet
Validated: 1
EndChar

StartChar: r
Encoding: 114 114 6
Width: 415
VWidth: 0
Flags: W
HStem: 0 21G<60 170> 310 112.039<209.406 374.162>
VStem: 60 110<0 310 389 420>
LayerCount: 2
Fore
SplineSet
170 420 m 1
 170 389 l 1
 267 417 l 2
 278.611 420.44 290.408 422.039 302.073 422.039 c 0
 368.169 422.039 430.049 370.686 430.049 311.706 c 0
 430.049 311.138 430.043 310.569 430.031 310 c 1
 180 310 l 2
 175 310 170 305 170 300 c 2
 170 0 l 1
 60 0 l 1
 60 420 l 1
 170 420 l 1
EndSplineSet
Validated: 1
EndChar

StartChar: g
Encoding: 103 103 7
Width: 510
VWidth: 0
Flags: W
HStem: -185.538 110<155.182 337.174> -3.75195 113.752<170 281.094> 309.055 110.944<170.004 255.874>
VStem: 60 110<110 307.492> 340 110<-74.3897 29.5244 110 309.055 376.806 420>
LayerCount: 2
Fore
SplineSet
200 -185.538 m 2
 131.932 -185.538 129.993 -87.7178 129.993 -76.5693 c 0
 129.993 -75.8955 130 -75.5381 130 -75.5381 c 1
 330 -75.5381 l 2
 334.875 -75.4131 339.875 -70.5381 340 -65.5381 c 2
 340 29.5244 l 1
 195 0.686523 l 2
 179.466 -2.27246 165.061 -3.75195 151.898 -3.75195 c 0
 93.8818 -3.75195 60 24.9873 60 82.4619 c 2
 60 304.462 l 2
 60 369.335 88.7344 419.999 153.997 419.999 c 0
 166.199 419.999 179.677 418.228 194.484 414.448 c 2
 340 376.806 l 1
 340 420 l 1
 450 420 l 1
 450 -67.5381 l 2
 450 -141.565 402.029 -185.538 334 -185.538 c 2
 200 -185.538 l 2
170 120 m 2
 170 114.494 174.744 110 180.25 110 c 2
 340 110 l 1
 340 309.055 l 1
 180 309.055 l 2
 175.243 309.055 170 303.812 170 298.805 c 2
 170 120 l 2
EndSplineSet
Validated: 1
EndChar

StartChar: o
Encoding: 111 111 8
Width: 550
VWidth: 0
Flags: W
HStem: -7 110<171.129 378.871> 311 109<171.129 378.871>
VStem: 60 110.062<104.129 309.846> 379.938 110.062<104.129 309.846>
LayerCount: 2
Fore
SplineSet
191.156 420 m 2
 358.844 420 l 2
 431.511 420 490 362.511 490 289.844 c 2
 490 124.156 l 2
 490 51.4893 431.511 -7 358.844 -7 c 2
 191.156 -7 l 2
 118.489 -7 60 51.4893 60 124.156 c 2
 60 289.844 l 2
 60 362.511 118.489 420 191.156 420 c 2
180 311 m 2
 174.5 311 170.062 306.562 170.062 301.062 c 2
 170.062 112.938 l 2
 170.062 107.438 174.5 103 180 103 c 2
 370 103 l 2
 375.5 103 379.938 107.438 379.938 112.938 c 2
 379.938 301.062 l 2
 379.938 306.562 375.5 311 370 311 c 2
 180 311 l 2
EndSplineSet
Validated: 1
EndChar

StartChar: d
Encoding: 100 100 9
Width: 490
VWidth: 0
Flags: W
HStem: -3.89551 113.896<170.243 266.906> 310 113.923<170.067 260.617> 590 20G<420.281 450.031>
VStem: 60 110.031<110 310> 340.031 110<0 40 109.996 120 120 310 375 568.341>
LayerCount: 2
Fore
SplineSet
450.031 610 m 1
 450.031 0 l 1
 340.031 0 l 1
 340.031 40 l 1
 210.031 0 l 6
 200.716 -2.66113 191.223 -3.89551 181.765 -3.89551 c 4
 120.148 -3.89551 60 48.4922 60 100 c 6
 60 319.938 l 6
 60 371.954 120.025 423.923 181.575 423.923 c 4
 191.096 423.923 200.654 422.679 210.031 420 c 6
 339.531 375 l 1
 339.531 490 l 2
 339.531 571.502 390.531 610 450.031 610 c 1
330.031 310 m 2
 180.031 310 l 6
 175.031 310 170.031 305 170.031 300 c 6
 170.031 120.5 l 6
 170.031 115 175.031 110 180.031 110 c 6
 330.031 110 l 2
 330.147 110 330.262 109.992 330.377 109.992 c 0
 335.477 109.992 339.787 115.355 340.031 120 c 2
 340.031 300 l 2
 340.031 305 335.031 310 330.031 310 c 2
EndSplineSet
Validated: 1
EndChar

StartChar: s
Encoding: 115 115 10
Width: 512
VWidth: 0
Flags: W
HStem: -0.978516 102<101.2 339.383> 166.779 86.2256<170 342> 317.022 102<170 406.11>
VStem: 60 110<255.404 268.922 268.922 317.022> 342 110<102.547 110.988 110.988 165.269>
LayerCount: 2
Fore
SplineSet
60 329.022 m 2
 61.2031 377.157 100.204 419.022 170 419.022 c 2
 352 419.022 l 2
 400.502 418.171 432 386.797 432 317.022 c 1
 180 317.022 l 2
 174.332 317.022 170 312.25 170 306.946 c 2
 170 262.642 l 2
 170 258.189 174.738 253.005 179.533 253.005 c 0
 179.689 253.005 179.845 253.01 180 253.021 c 2
 342 253.021 l 2
 400.79 253.021 452 219.877 452 159.708 c 2
 452 109.021 l 2
 452 39.0215 412 -0.978516 332 -0.978516 c 2
 150 -0.978516 l 2
 98.1426 -0.978516 80 40.9932 80 101.021 c 1
 332 101.021 l 2
 337.304 101.021 342 105.685 342 110.988 c 2
 342 158 l 2
 342 162.773 336.95 166.779 332 166.779 c 2
 170 166.779 l 2
 108.581 166.779 60 209.956 60 268.922 c 2
 60 329.022 l 2
EndSplineSet
Validated: 1
EndChar

StartChar: e
Encoding: 101 101 11
Width: 511
VWidth: 0
Flags: W
HStem: -8 110<171.809 391.893> 173.031 75.9688<170.062 361.156> 316 104<171.129 360.027>
VStem: 60 110.062<102.663 132 132 173.031 249 315.343> 361.156 110<249 315.343>
LayerCount: 2
Fore
SplineSet
191.156 420 m 2
 340 420 l 2
 412.667 420 471.156 361.511 471.156 288.844 c 2
 471.156 173.031 l 1
 170.062 173.031 l 1
 170.062 123 l 2
 170.062 111 178 102 190 102 c 2
 312 102 l 1
 432 102 l 1
 432 32 392 -8 312 -8 c 2
 190 -8 l 2
 110 -8 60 62 60 132 c 2
 60 288.844 l 2
 60 361.511 118.489 420 191.156 420 c 2
190 316 m 2
 180 316 170 306 170 296 c 2
 170 249 l 1
 361.156 249 l 1
 361.156 296 l 2
 361.156 306 351.156 316 341.156 316 c 2
 190 316 l 2
EndSplineSet
Validated: 1
EndChar

StartChar: f
Encoding: 102 102 12
Width: 296
VWidth: 0
Flags: W
HStem: 0 21G<50.0156 160.016> 330 90<160.016 273.519> 505 95<160.569 320.315>
VStem: 50.0156 110<0 330 420 503.155>
LayerCount: 2
Fore
SplineSet
175.016 600 m 2
 330.016 600 l 1
 330.016 565 l 2
 330.016 515 299.664 505 265.016 505 c 2
 175.016 505 l 2
 165.016 505 160.016 500 160.016 490 c 2
 160.016 420 l 1
 235.016 420 l 2
 259.945 420 280.016 399.93 280.016 375 c 0
 280.016 350.07 259.945 330 235.016 330 c 2
 160.016 330 l 1
 160.016 0 l 1
 50.0156 0 l 1
 50.0156 490 l 2
 50.0049 490.655 50 491.309 50 491.961 c 0
 50 552.528 95.8682 600 175.016 600 c 2
EndSplineSet
Validated: 1
EndChar

StartChar: t
Encoding: 116 116 13
Width: 349
VWidth: 0
Flags: W
HStem: 0 21G<120 230> 310 110<41.7017 120 230 338.298> 580 20G<159.765 190.235>
VStem: 120 110<0 310 420 588.298>
LayerCount: 2
Fore
SplineSet
175 600 m 4
 205.47 600 230 575.47 230 545 c 6
 230 420 l 5
 295 420 l 6
 325.47 420 350 395.47 350 365 c 6
 350 310 l 5
 230 310 l 5
 230 0 l 5
 120 0 l 5
 120 310 l 5
 85 310 l 6
 54.5303 310 30 334.53 30 365 c 4
 30 395.47 54.5303 420 85 420 c 6
 120 420 l 5
 120 545 l 6
 120 575.47 144.53 600 175 600 c 4
EndSplineSet
Validated: 1
EndChar

StartChar: i
Encoding: 105 105 14
Width: 240
VWidth: 0
Flags: W
HStem: 0 21G<65.8545 175.854> 400 20G<105.619 136.089> 481 111<77.2716 164.194>
VStem: 65.5 111<0 408.298 493.035 579.236>
LayerCount: 2
Fore
SplineSet
120.854 420 m 0
 151.324 420 175.854 395.47 175.854 365 c 2
 175.854 0 l 1
 65.8545 0 l 1
 65.8545 365 l 2
 65.8545 395.47 90.3848 420 120.854 420 c 0
176.5 536 m 4
 176.5 504 150.5 481 119.5 481 c 4
 90.5 481 65.5 504 65.5 536 c 4
 65.5 567 90.5 592 119.5 592 c 4
 150.5 592 176.5 567 176.5 536 c 4
EndSplineSet
Validated: 1
EndChar

StartChar: v
Encoding: 118 118 15
Width: 436
VWidth: 0
Flags: W
HStem: 0 21G<172.796 263.448> 398.104 20G<71.2124 75.2197 351.262 365.509>
LayerCount: 2
Fore
SplineSet
75.9229 418.094 m 0
 96.3809 417.779 115.774 405.978 124.954 386.094 c 2
 205.322 213.771 l 2
 215.249 186.569 218.235 159.781 218.235 159.781 c 1
 218.235 159.781 221.401 186.692 232.401 214.192 c 2
 311.767 386.094 l 2
 321.074 406.255 340.879 418.104 361.645 418.104 c 0
 369.372 418.104 377.233 416.464 384.735 413 c 0
 404.897 403.692 416.746 383.871 416.746 363.096 c 0
 416.746 355.365 415.105 347.502 411.642 340 c 2
 254.186 0 l 1
 182.026 0 l 1
 25.1104 340 l 2
 21.6432 347.51 20.0004 355.381 20.0004 363.12 c 0
 20.0004 383.886 31.8314 403.696 51.9854 413 c 0
 59.4924 416.466 67.3458 418.1 75.079 418.1 c 0
 75.3604 418.1 75.6417 418.098 75.9229 418.094 c 0
EndSplineSet
Validated: 1
EndChar

StartChar: q
Encoding: 113 113 17
Width: 510
VWidth: 0
Flags: W
HStem: -185.56 21G<340 450> -3.75195 113.752<170 281.094> 309.055 110.945<170 255.874>
VStem: 60 110<110 307.492> 340 110<-185.56 29.5244 110 309.055 376.806 420>
LayerCount: 2
Fore
SplineSet
340 -185.56 m 1
 340 29.5244 l 1
 195 0.686523 l 6
 179.466 -2.27246 165.061 -3.75195 151.898 -3.75195 c 4
 93.8818 -3.75195 60 24.9873 60 82.4619 c 6
 60 304.462 l 6
 60 369.335 88.7354 420 153.997 420 c 4
 166.199 420 179.678 418.229 194.484 414.448 c 6
 340 376.806 l 1
 340 420 l 1
 450 420 l 1
 450 -185.56 l 1
 340 -185.56 l 1
170 120 m 6
 170 114.494 174.744 110 180.25 110 c 6
 340 110 l 1
 340 309.055 l 1
 180 309.055 l 6
 175.243 309.055 170 303.812 170 298.805 c 6
 170 120 l 6
EndSplineSet
Validated: 1
EndChar

StartChar: p
Encoding: 112 112 18
Width: 510
VWidth: 0
Flags: W
HStem: -185.56 21G<60 170> -3.75195 113.752<228.906 340> 309.055 110.945<254.126 340>
VStem: 60 110<-185.56 29.5244 110 309.055 376.806 420> 340 110<110 120 120 307.492>
LayerCount: 2
Fore
SplineSet
170 -185.56 m 1
 60 -185.56 l 1
 60 420 l 1
 170 420 l 1
 170 376.806 l 1
 315.516 414.448 l 6
 330.322 418.229 343.801 420 356.003 420 c 4
 421.265 420 450 369.335 450 304.462 c 6
 450 82.4619 l 6
 450 24.9873 416.118 -3.75195 358.102 -3.75195 c 4
 344.939 -3.75195 330.534 -2.27246 315 0.686523 c 6
 170 29.5244 l 1
 170 -185.56 l 1
340 120 m 6
 340 298.805 l 6
 340 303.812 334.757 309.055 330 309.055 c 6
 170 309.055 l 1
 170 110 l 1
 329.75 110 l 6
 335.256 110 340 114.494 340 120 c 6
EndSplineSet
Validated: 1
EndChar

StartChar: l
Encoding: 108 108 19
Width: 230
VWidth: 0
Flags: W
HStem: 0 60<170 198.861>
VStem: 60 110<60 588.298>
LayerCount: 2
Fore
SplineSet
115 600 m 0
 145.47 600 170 575.47 170 545 c 2
 170 60 l 1
 186.56 60 200 46.5596 200 30 c 2
 200 0 l 1
 153.333 0 106.667 0 60 0 c 1
 60 545 l 2
 60 575.47 84.5303 600 115 600 c 0
EndSplineSet
Validated: 1
EndChar

StartChar: k
Encoding: 107 107 20
Width: 478
VWidth: 0
Flags: W
HStem: 0 21G<60 170>
VStem: 60 110<0 199.875 325.594 565.439>
LayerCount: 2
Fore
SplineSet
170 610 m 1
 170 325.594 l 1
 363.688 437.562 l 2
 372.379 442.554 381.835 444.93 391.154 444.93 c 0
 410.164 444.93 428.597 435.043 438.781 417.312 c 0
 443.768 408.63 446.141 399.179 446.141 389.865 c 0
 446.141 370.837 436.239 352.376 418.5 342.188 c 2
 289.281 268.188 l 1
 477.719 41.875 l 1
 435.125 7.21875 l 2
 424.847 -1.23557 412.467 -5.35699 400.17 -5.35699 c 0
 384.311 -5.35699 368.59 1.4965 357.688 14.75 c 2
 194.094 213.656 l 1
 170 199.875 l 1
 170 0 l 1
 60 0 l 1
 60 490 l 2
 60 570 115 610 170 610 c 1
EndSplineSet
Validated: 1
EndChar

StartChar: j
Encoding: 106 106 21
Width: 239
VWidth: 0
Flags: W
HStem: 400 20G<104.005 134.475> 481 111<76.2716 163.194>
VStem: 64.5 111<-81.2807 -30 -30 407.471 493.035 579.236>
LayerCount: 2
Fore
SplineSet
119.24 420 m 4
 149.71 420 174.24 395.47 174.24 365 c 6
 174.24 -30 l 6
 174.24 -52.0508 169.187 -70.4561 152.187 -86.9561 c 6
 58.5586 -172.832 l 6
 46.4775 -187.193 31.8574 -193.055 18.5215 -193.055 c 4
 -2.30469 -193.055 -20 -178.756 -20 -160.203 c 4
 -20 -153.784 -17.8818 -146.856 -13.0439 -139.835 c 5
 50.3838 -74.0898 l 5
 61.4717 -57.459 64.4863 -50.9951 64.4863 -34.332 c 4
 64.4863 -32.9609 64.4658 -31.5205 64.4277 -30 c 5
 64.2402 -30 l 5
 64.2402 365 l 6
 64.2402 395.47 88.7705 420 119.24 420 c 4
175.5 536 m 4
 175.5 504 149.5 481 118.5 481 c 4
 89.5 481 64.5 504 64.5 536 c 4
 64.5 567 89.5 592 118.5 592 c 4
 149.5 592 175.5 567 175.5 536 c 4
EndSplineSet
Validated: 1
EndChar

StartChar: comma
Encoding: 44 44 22
Width: 242
VWidth: 0
Flags: W
HStem: -132.11 242.548<104.398 121.478>
VStem: 60.0001 122.797<5.50407 94.7291> 103.931 78.866<-53.9912 -7.46875>
LayerCount: 2
Fore
SplineSet
122.359 110.438 m 0xa0
 155.715 110.438 182.797 83.3555 182.797 50 c 2
 182.797 8.06348 l 2
 182.797 -12.4395 176.559 -30.9932 168.547 -43.5938 c 2
 116.609 -117.531 l 2
 107.9 -127.884 97.3627 -132.11 87.7522 -132.11 c 0
 72.7464 -132.11 60.0001 -121.807 60.0001 -108.436 c 0xc0
 60.0001 -103.808 61.527 -98.8129 65.0156 -93.75 c 2
 98.7031 -28.6562 l 1
 102.813 -23.159 103.931 -18.2699 103.931 -13.0382 c 0
 103.931 -11.2354 103.798 -9.39187 103.609 -7.46875 c 1
 79.4258 0.427734 61.9531 23.1865 61.9531 50 c 0
 61.9531 83.3555 89.0039 110.438 122.359 110.438 c 0xa0
EndSplineSet
Validated: 1
EndChar

StartChar: y
Encoding: 121 121 23
Width: 455
VWidth: 0
Flags: W
HStem: -191.43 21G<128.734 142.968> 399.5 20G<81.0918 95.4097 361.891 376.125>
LayerCount: 2
Fore
SplineSet
85.1797 419.5 m 0
 105.64 419.463 125.199 407.944 134.648 388.188 c 2
 228.617 191.719 l 1
 322.586 388.188 l 2
 332.048 407.973 351.646 419.492 372.136 419.492 c 0
 380.114 419.492 388.228 417.746 395.931 414.062 c 0
 415.715 404.6 427.235 385.002 427.235 364.512 c 0
 427.235 356.534 425.489 348.422 421.806 340.719 c 2
 182.273 -160.125 l 2
 172.812 -179.91 153.213 -191.43 132.723 -191.43 c 0
 124.745 -191.43 116.633 -189.684 108.93 -186 c 2
 58.7793 -160.51 l 1
 172.523 74.4062 l 1
 163.817 79.7637 156.468 87.585 151.711 97.5312 c 2
 35.4297 340.719 l 2
 31.7461 348.422 30 356.534 30 364.512 c 0
 30 385.002 41.5195 404.6 61.3047 414.062 c 0
 69.0039 417.744 77.1055 419.5 85.0781 419.5 c 0
 85.1797 419.5 l 0
EndSplineSet
Validated: 1
EndChar

StartChar: c
Encoding: 99 99 24
Width: 452
VWidth: 0
Flags: W
HStem: -7 108.844<171.272 393.632> 310 108.844<171.272 393.632>
VStem: 60 110.062<103.001 123 123 308.842>
LayerCount: 2
Fore
SplineSet
195 418.844 m 2
 340.062 418.844 l 2
 424.062 418.844 428 310 428 310 c 1
 180 310 l 2
 174.5 310 170.062 305.562 170.062 300.062 c 2
 170.062 111.781 l 2
 170.062 106.281 174.5 101.844 180 101.844 c 2
 428 101.844 l 1
 428 101.844 424.062 -7 340.062 -7 c 2
 195 -7 l 2
 106.722 -7 60 50.333 60 123 c 2
 60 288.844 l 2
 60 361.511 106.722 418.844 195 418.844 c 2
EndSplineSet
Validated: 1
EndChar

StartChar: w
Encoding: 119 119 25
Width: 673
VWidth: 0
Flags: W
HStem: 0 21G<172.787 263.435 409.536 500.186> 398.104 20G<71.2119 75.2196 588.011 602.258>
LayerCount: 2
Fore
SplineSet
75.9229 418.094 m 0
 96.3799 417.779 115.774 405.978 124.954 386.094 c 2
 205.329 213.781 l 2
 215.256 186.58 218.235 159.781 218.235 159.781 c 1
 218.235 159.781 221.392 186.688 232.392 214.188 c 2
 265.189 284.874 l 2
 271.939 298.874 285 310 305 310 c 2
 370 310 l 2
 386.5 310 401.869 297.688 409.369 282.938 c 2
 442.048 213.781 l 2
 451.975 186.58 454.985 159.781 454.985 159.781 c 1
 454.985 159.781 458.142 186.688 469.142 214.188 c 2
 548.517 386.094 l 2
 557.824 406.255 577.628 418.104 598.394 418.104 c 0
 606.122 418.104 613.983 416.464 621.485 413 c 0
 641.647 403.692 653.495 383.871 653.495 363.096 c 0
 653.495 355.365 651.855 347.502 648.392 340 c 2
 490.923 0 l 1
 418.767 0 l 1
 336.61 178 l 1
 254.173 0 l 1
 182.017 0 l 1
 25.1104 340 l 2
 21.6431 347.51 20.0003 355.382 20.0003 363.12 c 0
 20.0003 383.887 31.8309 403.696 51.9854 413 c 0
 59.4924 416.466 67.3449 418.1 75.0789 418.1 c 0
 75.3604 418.1 75.6417 418.098 75.9229 418.094 c 0
EndSplineSet
Validated: 1
EndChar

StartChar: z
Encoding: 122 122 26
Width: 460
VWidth: 0
Flags: W
HStem: -5 110<198.698 400.747> 310 110<81.8088 262.081>
LayerCount: 2
Fore
SplineSet
151.323 420 m 2
 385.011 420 l 2
 410.011 420 425.011 400 425.011 380 c 2
 425.011 330 l 2
 425.017 329.778 425.02 329.557 425.02 329.337 c 0
 425.02 311.223 404.846 299.803 391.323 283.594 c 2
 198.698 105 l 1
 425.011 105 l 1
 425.011 75 425.011 -5 345.011 -5 c 2
 77.1318 -5 l 2
 64.6318 -5 35.0107 15 35.0107 35 c 2
 35.0107 85 l 2
 35.0037 85.2616 35.0002 85.5222 35.0002 85.7818 c 0
 35.0002 103.88 52.058 117.131 68.6982 132.82 c 2
 262.081 310 l 1
 51.3232 310 l 1
 51.3232 358.104 60.8027 420 151.323 420 c 2
EndSplineSet
Validated: 1
EndChar

StartChar: x
Encoding: 120 120 27
Width: 451
VWidth: 0
Flags: W
HStem: 408.924 20G<74.817 82.7297 348.121 362.188>
LayerCount: 2
Fore
SplineSet
73.6631 428.906 m 0
 74.1246 428.918 74.5863 428.924 75.0478 428.924 c 0
 90.4115 428.924 105.696 422.505 116.601 409.938 c 2
 215.413 296.031 l 1
 314.257 409.938 l 2
 325.163 422.507 340.437 428.944 355.804 428.944 c 0
 368.573 428.944 381.406 424.5 391.851 415.438 c 0
 404.421 404.531 410.857 389.257 410.857 373.89 c 0
 410.857 361.121 406.413 348.288 397.351 337.844 c 2
 288.257 212.094 l 1
 431.222 46.1621 l 1
 391.851 8.78125 l 2
 381.398 -0.288331 368.553 -4.73881 355.774 -4.73881 c 0
 340.417 -4.73881 325.156 1.68835 314.257 14.25 c 2
 215.413 128.156 l 1
 116.601 14.25 l 2
 105.701 1.68835 90.4404 -4.73881 75.0837 -4.73881 c 0
 62.3049 -4.73881 49.4598 -0.288332 39.0068 8.78125 c 0
 26.4369 19.6876 20.0003 34.9522 20.0003 50.3107 c 0
 20.0003 63.0725 24.4444 75.899 33.5068 86.3438 c 2
 142.601 212.094 l 1
 33.5068 337.844 l 2
 24.4444 348.288 20.0003 361.121 20.0003 373.89 c 0
 20.0003 389.257 26.4369 404.531 39.0068 415.438 c 0
 49.0752 424.174 61.3535 428.597 73.6631 428.906 c 0
EndSplineSet
Validated: 1
EndChar

StartChar: exclam
Encoding: 33 33 28
Width: 271
VWidth: 0
Flags: W
HStem: -0.956055 111.956<91.9443 180.012>
VStem: 80 111.957<10.9882 99.0557 170 587.324>
LayerCount: 2
Fore
SplineSet
191.957 55.0215 m 0
 191.957 24.1221 166.878 -0.956055 135.979 -0.956055 c 0
 105.078 -0.956055 80 24.1221 80 55.0215 c 0
 80 85.9219 105.078 111 135.979 111 c 0
 166.878 111 191.957 85.9219 191.957 55.0215 c 0
136 600 m 0
 166.47 600 191 575.182 191 544.354 c 2
 191 170 l 1
 81 170 l 1
 81 544.354 l 2
 81 575.182 105.53 600 136 600 c 0
EndSplineSet
Validated: 1
EndChar

StartChar: question
Encoding: 63 63 29
Width: 457
VWidth: 0
Flags: W
HStem: 0 111<130.538 218.078> 252 107<229 296.664> 480 122<170.377 296.664>
VStem: 119 111<11.2293 99.0782 170 252 252 252> 299 109<361.18 479.628>
LayerCount: 2
Fore
SplineSet
230 55 m 0
 230 23 205 0 174 0 c 0
 143 0 119 23 119 55 c 0
 119 86 143 111 174 111 c 0
 205 111 230 86 230 55 c 0
273 602 m 0
 361 602 408 533 408 459 c 2
 408 381 l 2
 408 309 361 252 273 252 c 2
 273 252 230 252 229 252 c 1
 229 170 l 1
 119 170 l 1
 119 252 l 2
 119 318 180 359 230 359 c 2
 287 359 l 2
 295 359 299 365 299 369 c 2
 299 471 l 2
 299 477 293 480 289 480 c 2
 41 480 l 1
 41 529 l 0
 39 533 41 537 47 539 c 2
 47 539 213 602 273 602 c 0
EndSplineSet
Validated: 1
EndChar

StartChar: period
Encoding: 46 46 30
Width: 230
VWidth: 0
Flags: W
HStem: 0 111<72.7716 159.694>
VStem: 61 111<12.0347 98.2356>
LayerCount: 2
Fore
SplineSet
172 55 m 4
 172 23 146 0 115 0 c 4
 86 0 61 23 61 55 c 4
 61 86 86 111 115 111 c 4
 146 111 172 86 172 55 c 4
EndSplineSet
Validated: 1
EndChar

StartChar: colon
Encoding: 58 58 31
Width: 231
VWidth: 0
Flags: W
HStem: -0.956055 111.956<71.9443 160.012> 309.043 111.957<71.9443 160.012>
VStem: 60 111.957<10.9882 99.0557 320.988 409.056>
LayerCount: 2
Fore
SplineSet
171.957 365.021 m 0
 171.957 334.122 146.878 309.043 115.979 309.043 c 0
 85.0781 309.043 60 334.122 60 365.021 c 0
 60 395.922 85.0781 421 115.979 421 c 0
 146.878 421 171.957 395.922 171.957 365.021 c 0
171.957 55.0215 m 0
 171.957 24.1221 146.878 -0.956055 115.979 -0.956055 c 0
 85.0781 -0.956055 60 24.1221 60 55.0215 c 0
 60 85.9219 85.0781 111 115.979 111 c 0
 146.878 111 171.957 85.9219 171.957 55.0215 c 0
EndSplineSet
Validated: 1
EndChar

StartChar: semicolon
Encoding: 59 59 32
Width: 242
VWidth: 0
Flags: W
HStem: 309.043 111.957<73.7412 161.809>
VStem: 60.0001 122.797<5.50408 94.7288> 61.7969 111.957<320.988 409.056> 103.931 78.8661<-53.9912 -7.46875>
LayerCount: 2
Fore
SplineSet
122.359 110.438 m 0x90
 155.715 110.438 182.797 83.3555 182.797 50 c 2
 182.797 8.06348 l 2x90
 182.797 -12.4395 176.559 -30.9932 168.547 -43.5938 c 2
 116.609 -117.531 l 2
 107.9 -127.884 97.3627 -132.11 87.7522 -132.11 c 0
 72.7464 -132.11 60.0001 -121.807 60.0001 -108.436 c 0xc0
 60.0001 -103.808 61.527 -98.8129 65.0156 -93.75 c 2
 98.7031 -28.6562 l 1
 102.813 -23.159 103.931 -18.2699 103.931 -13.0382 c 0
 103.931 -11.2354 103.798 -9.39187 103.609 -7.46875 c 1
 79.4258 0.427734 61.9531 23.1865 61.9531 50 c 0
 61.9531 83.3555 89.0039 110.438 122.359 110.438 c 0x90
173.754 365.021 m 0xa0
 173.754 334.122 148.675 309.043 117.775 309.043 c 0
 86.875 309.043 61.7969 334.122 61.7969 365.021 c 0
 61.7969 395.922 86.875 421 117.775 421 c 0
 148.675 421 173.754 395.922 173.754 365.021 c 0xa0
EndSplineSet
Validated: 1
EndChar

StartChar: quotesingle
Encoding: 39 39 33
Width: 231
VWidth: 0
Flags: W
HStem: 339.09 263.91
VStem: 60.0312 111.938
LayerCount: 2
Fore
SplineSet
115.969 603 m 0
 146.869 603 171.969 577.932 171.969 547.031 c 2
 152.438 339.09 l 1
 115.969 340 l 2
 94.8965 340 77.6279 356.318 76.0938 377 c 1
 76 377 l 1
 60.0312 547.812 l 1
 60 548 l 1
 60.0312 548 l 1
 60.5518 578.451 85.3945 603 115.969 603 c 0
EndSplineSet
Validated: 1
EndChar

StartChar: quotedbl
Encoding: 34 34 34
Width: 409
VWidth: 0
Flags: W
HStem: 339.09 263.91
VStem: 60.0312 289.643
LayerCount: 2
Fore
SplineSet
293.674 603 m 0
 324.574 603 349.674 577.932 349.674 547.031 c 2
 330.145 339.09 l 1
 293.674 340 l 2
 272.603 340 255.334 356.318 253.799 377 c 1
 253.705 377 l 1
 237.736 547.812 l 1
 237.705 548 l 1
 237.736 548 l 1
 238.257 578.451 263.1 603 293.674 603 c 0
115.969 603 m 0
 146.868 603 171.969 577.932 171.969 547.031 c 2
 152.438 339.09 l 1
 115.969 340 l 2
 94.8965 340 77.6279 356.318 76.0938 377 c 1
 76 377 l 1
 60.0312 547.812 l 1
 60 548 l 1
 60.0312 548 l 1
 60.5518 578.451 85.3936 603 115.969 603 c 0
EndSplineSet
Validated: 1
EndChar

StartChar: M
Encoding: 77 77 35
Width: 675
VWidth: 0
Flags: W
HStem: 0 21G<75 185 490 600>
VStem: 75 110<0 384.406> 490 110<0 384.406>
LayerCount: 2
Fore
SplineSet
130 600 m 0
 160.47 600 170 579.47 185 561 c 2
 337.5 351.844 l 1
 490 561 l 2
 505 579.47 514.53 600 545 600 c 0
 575.47 600 600 575.47 600 545 c 2
 600 0 l 1
 490 0 l 1
 490 384.406 l 1
 353.531 210.073 l 2
 349.687 205.075 343.501 202.351 337.239 202.351 c 0
 331.286 202.351 325.264 204.813 321.117 210.125 c 2
 185 384.406 l 1
 185 0 l 1
 75 0 l 1
 75 545 l 2
 75 575.47 99.5303 600 130 600 c 0
EndSplineSet
Validated: 1
EndChar

StartChar: N
Encoding: 78 78 36
Width: 630
VWidth: 0
Flags: W
HStem: 0 21G<75 185 485.265 515.735>
VStem: 75 110<0 384.406> 445.5 110<215.594 591.215>
LayerCount: 2
Fore
SplineSet
130 600 m 0
 160.47 600 170 579.47 185 561 c 2
 445.5 215.594 l 1
 445.5 557 l 2
 447.5 582 469.5 600 499.5 600 c 2
 555.5 600 l 1
 555.5 55 l 2
 555.5 24.5303 530.97 0 500.5 0 c 0
 470.03 0 460.5 20.5303 445.5 39 c 2
 185 384.406 l 1
 185 0 l 1
 75 0 l 1
 75 545 l 2
 75 575.47 99.5303 600 130 600 c 0
EndSplineSet
Validated: 1
EndChar

StartChar: H
Encoding: 72 72 37
Width: 600
VWidth: 0
Flags: W
HStem: 0 21G<75 185 415 525> 238.406 110<185 415>
VStem: 75 110<0 238.406 348.406 588.298> 415 110<0 238.406 348.406 588.298>
LayerCount: 2
Fore
SplineSet
130 600 m 0
 160.47 600 185 575.47 185 545 c 2
 185 348.406 l 1
 415 348.406 l 1
 415 545 l 2
 415 575.47 439.53 600 470 600 c 2
 525 600 l 1
 525 0 l 1
 415 0 l 1
 415 238.406 l 1
 185 238.406 l 1
 185 0 l 1
 75 0 l 1
 75 545 l 2
 75 575.47 99.5303 600 130 600 c 0
EndSplineSet
Validated: 1
EndChar

StartChar: O
Encoding: 79 79 38
Width: 581
VWidth: 0
Flags: W
HStem: 0 110<186.129 395.027> 490 110<186.129 395.027>
VStem: 75 110.062<111.129 488.871> 396.094 110.062<111.129 488.871>
LayerCount: 2
Fore
SplineSet
206.156 600 m 2
 375 600 l 2
 447.667 600 506.156 541.511 506.156 468.844 c 2
 506.156 131.156 l 2
 506.156 58.4893 447.667 0 375 0 c 2
 206.156 0 l 2
 133.489 0 75 58.4893 75 131.156 c 2
 75 468.844 l 2
 75 541.511 133.489 600 206.156 600 c 2
195 490 m 2
 189.5 490 185.062 485.562 185.062 480.062 c 2
 185.062 119.938 l 2
 185.062 114.438 189.5 110 195 110 c 2
 386.156 110 l 2
 391.656 110 396.094 114.438 396.094 119.938 c 2
 396.094 480.062 l 2
 396.094 485.562 391.656 490 386.156 490 c 2
 195 490 l 2
EndSplineSet
Validated: 1
EndChar

StartChar: P
Encoding: 80 80 39
Width: 449
VWidth: 0
Flags: W
HStem: 0 21G<50 160> 238 110<160 309.729> 489.055 110.945<160 309.709>
VStem: 50 110<0 238 348 489.055> 310 110<348 358 358 487.522>
LayerCount: 2
Fore
SplineSet
160 0 m 1
 50 0 l 1
 50 600 l 1
 300 600 l 2
 370 600 420 550 420 484.462 c 2
 420 348 l 2
 420 275.485 355 238 305 238 c 2
 160 238 l 1
 160 0 l 1
310 358 m 2
 310 478.805 l 2
 310 483.812 304.757 489.055 300 489.055 c 2
 160 489.055 l 1
 160 348 l 1
 299.75 348 l 2
 305.256 348 310 352.494 310 358 c 2
EndSplineSet
Validated: 1
EndChar

StartChar: C
Encoding: 67 67 40
Width: 484
VWidth: 0
Flags: W
HStem: 0 110<186.129 422.285> 490 110<186.129 413.628>
VStem: 75 110.062<111.129 131.156 131.156 488.871>
LayerCount: 2
Fore
SplineSet
206.156 600 m 2
 365 600 l 2
 418.035 599.018 445.027 541.125 445.027 492.636 c 0
 445.027 491.754 445.018 490.875 445 490 c 1
 195 490 l 2
 189.5 490 185.062 485.562 185.062 480.062 c 2
 185.062 119.938 l 2
 185.062 114.438 189.5 110 195 110 c 2
 455 110 l 1
 455 60 425 0 375 0 c 2
 206.156 0 l 2
 133.489 0 75 58.4893 75 131.156 c 2
 75 468.844 l 2
 75 541.511 133.489 600 206.156 600 c 2
EndSplineSet
Validated: 1
EndChar

StartChar: Q
Encoding: 81 81 41
Width: 580
VWidth: 0
Flags: W
HStem: 0 110<181.129 340.219> 490 110<181.129 390.027>
VStem: 70 110.062<111.129 488.871> 391.094 110.062<152.5 488.871>
LayerCount: 2
Fore
SplineSet
201.156 600 m 2
 370 600 l 2
 442.667 600 501.156 541.511 501.156 468.844 c 2
 501.156 131.156 l 2
 501.156 112.965 497.479 95.6572 490.844 79.9375 c 1
 533.305 38.04 578.656 -6.6875 578.656 -6.6875 c 1
 554.875 -34.375 l 2
 546.98 -44.0374 535.5 -49.0367 523.922 -49.0367 c 0
 515.948 -49.0367 507.928 -46.6652 501 -41.8125 c 1
 500.938 -41.9062 l 1
 422.469 10.8438 l 1
 406.417 3.86816 388.677 0 370 0 c 2
 201.156 0 l 2
 128.489 0 70 58.4893 70 131.156 c 2
 70 468.844 l 2
 70 541.511 128.489 600 201.156 600 c 2
190 490 m 2
 184.5 490 180.062 485.562 180.062 480.062 c 2
 180.062 119.938 l 2
 180.062 114.438 184.5 110 190 110 c 2
 340.219 110 l 1
 347.1 133.653 365.999 150.365 391.094 152.5 c 1
 391.094 480.062 l 2
 391.094 485.562 386.656 490 381.156 490 c 2
 190 490 l 2
EndSplineSet
Validated: 1
EndChar

StartChar: R
Encoding: 82 82 42
Width: 500
VWidth: 0
Flags: W
HStem: 0 21G<75 185 404.704 419.001> 238 110<185 277.188> 489.062 110.938<185 331.943>
VStem: 75 110<0 238 348 489.062> 335 110<348 358 358 487.529>
LayerCount: 2
Fore
SplineSet
75 600 m 1
 325 600 l 2
 400 600 445 550 445 484.469 c 2
 445 348 l 2
 445 303.245 420.243 271.835 389.531 254.344 c 1
 485.138 23.6025 l 1
 436.688 -2.09375 l 2
 429.732 -4.98838 422.535 -6.36029 415.466 -6.36029 c 0
 393.943 -6.36029 373.594 6.35516 364.781 27.5312 c 2
 277.188 238 l 1
 185 238 l 1
 185 0 l 1
 75 0 l 1
 75 600 l 1
185 489.062 m 1
 185 348 l 1
 324.75 348 l 2
 330.256 348 335 352.494 335 358 c 2
 335 478.812 l 2
 335 483.818 329.757 489.062 325 489.062 c 2
 185 489.062 l 1
EndSplineSet
Validated: 1
EndChar

StartChar: T
Encoding: 84 84 43
Width: 410
VWidth: 0
Flags: W
HStem: 0 21G<150 260> 490 110<-8.2983 150 260 418.298>
VStem: 150 110<0 490>
LayerCount: 2
Fore
SplineSet
35 600 m 2
 375 600 l 2
 405.47 600 430 575.47 430 545 c 2
 430 490 l 1
 260 490 l 1
 260 0 l 1
 150 0 l 1
 150 490 l 1
 -20 490 l 1
 -20 545 l 2
 -20 575.47 4.53027 600 35 600 c 2
EndSplineSet
Validated: 1
EndChar

StartChar: V
Encoding: 86 86 44
Width: 526
VWidth: 0
Flags: W
HStem: 0 21G<192.009 318.669>
LayerCount: 2
Fore
SplineSet
79.6787 605.031 m 0
 80.0455 605.039 80.4119 605.042 80.7779 605.042 c 0
 103.823 605.042 125.189 590.473 132.866 567.344 c 2
 255.46 197.969 l 1
 378.054 567.344 l 2
 385.73 590.474 407.107 605.053 430.154 605.053 c 0
 435.923 605.053 441.796 604.14 447.585 602.219 c 2
 453.179 600.344 l 1
 503.312 580.209 l 1
 312.077 0 l 1
 198.633 0 l 1
 22.835 530.844 l 2
 20.9136 536.633 20.0002 542.505 20.0002 548.271 c 0
 20.0002 571.311 34.5802 592.667 57.71 600.344 c 2
 63.335 602.219 l 2
 68.7568 604.019 74.2646 604.923 79.6787 605.031 c 0
EndSplineSet
Validated: 1
EndChar

StartChar: A
Encoding: 65 65 45
Width: 518
VWidth: 0
Flags: W
HStem: -5.06944 21G<85.6998 97.3757 421.139 432.785> 129.469 110<205.854 313.229>
LayerCount: 2
Fore
SplineSet
255.322 600 m 2
 316.104 600 l 1
 491.885 69.1562 l 1
 492.804 63.5111 493.252 58.1533 493.252 53.0947 c 0
 493.252 17.6949 471.293 -3.04976 435.041 -5.03125 c 0
 434.137 -5.08067 433.235 -5.10513 432.336 -5.10513 c 0
 409.943 -5.10513 389.351 10.0671 381.854 32.6562 c 2
 349.729 129.469 l 1
 169.354 129.469 l 1
 137.229 32.6562 l 2
 129.651 9.82607 108.721 -5.06944 86.0307 -5.06944 c 0
 85.3689 -5.06944 84.7056 -5.05677 84.041 -5.03125 c 0
 50.9399 -3.75939 25.0001 19.9096 25.0001 52.4231 c 0
 25.0001 57.7808 25.7045 63.3788 27.1973 69.1562 c 2
 183.01 539.562 l 2
 195.737 572.09 217.139 600 255.322 600 c 2
259.541 401.188 m 1
 205.854 239.469 l 1
 313.229 239.469 l 1
 259.541 401.188 l 1
EndSplineSet
Validated: 1
EndChar

StartChar: G
Encoding: 71 71 46
Width: 498
VWidth: 0
Flags: W
HStem: 0 110<171.129 330> 238.5 71.8125<267.579 330> 490 110<171.129 398.628>
VStem: 60 110.062<111.129 131.156 131.156 488.871> 330 110<110 238.5>
LayerCount: 2
Fore
SplineSet
191.156 600 m 2
 350 600 l 2
 403.035 599.018 430.027 541.125 430.027 492.636 c 0
 430.027 491.754 430.018 490.875 430 490 c 1
 180 490 l 2
 174.5 490 170.062 485.562 170.062 480.062 c 2
 170.062 119.938 l 2
 170.062 114.438 174.5 110 180 110 c 2
 330 110 l 1
 330 238.5 l 1
 300 238.5 l 2
 277.373 238.5 265 253.975 265 275.188 c 2
 265 310.312 l 1
 440 310.312 l 1
 440 255.312 l 1
 440 110 l 1
 440 55 l 2
 440 25.1299 420.173 0.217773 380.644 0.217773 c 0
 380.471 0.217773 380.298 0.217773 380.125 0.21875 c 1
 380.125 0.217773 380 0 380 0 c 1
 191.156 0 l 2
 118.489 0 60 58.4893 60 131.156 c 2
 60 468.844 l 2
 60 541.511 118.489 600 191.156 600 c 2
EndSplineSet
Validated: 1
EndChar

StartChar: U
Encoding: 85 85 47
Width: 552
VWidth: 0
Flags: W
HStem: 0 110.094<185 367.028>
VStem: 75 110<110.094 593.835> 367.031 110<110.094 589.301>
LayerCount: 2
Fore
SplineSet
130.375 604.375 m 0
 157.75 604.25 185 586 185 550 c 2
 185 120.094 l 2
 185 115.094 190.031 110.094 195.031 110.094 c 2
 357 110.094 l 2
 362 110.094 367.031 115.094 367.031 120.094 c 2
 367.031 545 l 2
 367.031 581.131 394.481 600.002 421.957 600.002 c 0
 422.499 600 l 2
 477.031 600 l 1
 477.031 100 l 2
 477.031 40 437.031 0 387.031 0 c 2
 165 0 l 2
 115 0 75 40 75 100 c 2
 75 550 l 2
 75.4983 586.374 102.811 604.376 130.092 604.376 c 0
 130.375 604.375 l 0
EndSplineSet
Validated: 1
EndChar

StartChar: S
Encoding: 83 83 48
Width: 478
VWidth: 0
Flags: W
HStem: -0.978516 102<66.2003 317.383> 253.406 110.226<148 320> 498 102<148 375.11>
VStem: 38 110<363.636 498> 320 110<102.547 110.988 110.988 251.152>
LayerCount: 2
Fore
SplineSet
38 510 m 6
 38 558.149 78.2041 600 148 600 c 6
 321 600 l 6
 369.502 599.149 401 567.774 401 498 c 5
 158 498 l 6
 152.332 498 148 493.228 148 487.925 c 6
 148 373.269 l 6
 148 368.816 152.737 363.632 157.533 363.632 c 4
 157.689 363.632 157.845 363.638 158 363.648 c 6
 320 363.648 l 6
 390.804 363.648 430 308.504 430 248.335 c 6
 430 109.021 l 6
 430 39.0215 390 -0.978516 310 -0.978516 c 6
 115 -0.978516 l 6
 63.1426 -0.978516 45 40.9932 45 101.021 c 5
 310 101.021 l 6
 315.304 101.021 320 105.685 320 110.988 c 6
 320 244.627 l 6
 320 249.399 314.95 253.406 310 253.406 c 6
 148 253.406 l 6
 86.5811 253.406 38 296.583 38 355.549 c 6
 38 510 l 6
EndSplineSet
Validated: 1
EndChar

StartChar: I
Encoding: 73 73 49
Width: 230
VWidth: 0
Flags: W
HStem: 0 21G<60 170>
VStem: 60 110<0 588.298>
LayerCount: 2
Fore
SplineSet
115 600 m 2
 170 600 l 1
 170 0 l 1
 60 0 l 1
 60 545 l 2
 60 575.47 84.5303 600 115 600 c 2
EndSplineSet
Validated: 1
EndChar

StartChar: J
Encoding: 74 74 50
Width: 269
VWidth: 0
Flags: W
VStem: 84.4862 109.754<-81.2807 -30 -30 592.298>
LayerCount: 2
Fore
SplineSet
139.24 604 m 0
 169.71 604 194.24 579.47 194.24 549 c 2
 194.24 -30 l 2
 194.24 -52.0508 189.187 -70.4561 172.187 -86.9561 c 2
 78.5586 -172.832 l 2
 66.4773 -187.193 51.8575 -193.055 38.5219 -193.055 c 0
 17.6949 -193.055 0.000324393 -178.756 0.000324393 -160.203 c 0
 0.000324393 -153.784 2.11794 -146.856 6.95605 -139.835 c 1
 70.3838 -74.0898 l 1
 81.4713 -57.4586 84.4862 -50.995 84.4862 -34.3325 c 0
 84.4862 -32.9612 84.4658 -31.5208 84.4277 -30 c 1
 84.2402 -30 l 1
 84.2402 549 l 2
 84.2402 579.47 108.771 604 139.24 604 c 0
EndSplineSet
Validated: 1
EndChar

StartChar: L
Encoding: 76 76 51
Width: 493
VWidth: 0
Flags: W
HStem: 0 110<185 463.298>
VStem: 75 110<110 588.298>
LayerCount: 2
Fore
SplineSet
130 600 m 2
 185 600 l 1
 185 110 l 1
 420 110 l 2
 450.47 110 475 85.4697 475 55 c 0
 475 24.5303 450.47 0 420 0 c 2
 75 0 l 1
 75 545 l 2
 75 575.47 99.5303 600 130 600 c 2
EndSplineSet
Validated: 1
EndChar

StartChar: B
Encoding: 66 66 52
Width: 511
VWidth: 0
Flags: W
HStem: 0 110<185 354.979> 261.25 90.75<185 334.997> 501.062 98.125<185 332.383>
VStem: 75 110<110 261.25 352 501.062> 335 110<352 362 362 499.513> 355.25 110<110 120 120 261.195>
LayerCount: 2
Fore
SplineSet
75 599.188 m 1xf4
 325 599.188 l 2
 405.004 599.188 445 550 445 484.469 c 2
 445 348 l 2xf8
 445 329.3 425 300 395 300 c 1
 425 300 465.25 268.342 465.25 232.656 c 2
 465.25 110 l 2
 465.25 37.4854 400.25 0 350.25 0 c 2
 75 0 l 1
 75 599.188 l 1xf4
185 501.062 m 1
 185 352 l 1
 324.75 352 l 2
 330.256 352 335 356.494 335 362 c 2
 335 490.812 l 2
 335 495.818 329.757 501.062 325 501.062 c 2
 185 501.062 l 1
185 261.25 m 1
 185 110 l 1
 345 110 l 2
 350.506 110 355.25 114.494 355.25 120 c 2
 355.25 251 l 2xf4
 355.25 256.006 350.007 261.25 345.25 261.25 c 2
 185 261.25 l 1
EndSplineSet
Validated: 1
EndChar

StartChar: D
Encoding: 68 68 53
Width: 530
VWidth: 0
Flags: W
HStem: 0 110<185 354.729> 489.055 110.945<185 352.033>
VStem: 75 110<110 489.055> 355 110<110 120 120 487.305>
LayerCount: 2
Fore
SplineSet
350 0 m 2
 75 0 l 1
 75 600 l 1
 342.572 600 l 2
 410.512 600 465 545.209 465 484.462 c 2
 465 110 l 2
 465 37.4854 400 0 350 0 c 2
355 120 m 2
 355 478.805 l 2
 355 483.812 349.757 489.055 345 489.055 c 2
 185 489.055 l 1
 185 110 l 1
 344.75 110 l 2
 350.256 110 355 114.494 355 120 c 2
EndSplineSet
Validated: 1
EndChar

StartChar: W
Encoding: 87 87 54
Width: 717
VWidth: 0
Flags: W
HStem: 0 21G<156.382 308.902 396.997 551.082> 400.019 20G<392.365 397.662>
LayerCount: 2
Fore
SplineSet
88.6396 604.2 m 0
 89.1465 604.214 89.6525 604.221 90.1575 604.221 c 0
 115.168 604.221 137.689 587.123 143.608 561.669 c 2
 235.68 164.656 l 1
 288.906 394.549 l 2
 293.406 408.049 301.799 419.5 315.799 420 c 2
 391.686 420 l 2
 391.956 420.013 392.228 420.019 392.501 420.019 c 0
 402.824 420.019 414.776 410.861 418.186 396.247 c 2
 471.805 164.656 l 1
 564.71 561.707 l 2
 570.629 587.159 593.133 604.255 618.141 604.255 c 0
 622.293 604.255 626.515 603.784 630.741 602.801 c 2
 682.562 589.102 l 1
 546.461 0 l 1
 402.148 0 l 1
 373.815 110 l 2
 365.415 151.379 359.779 186.048 353.742 272.719 c 1
 346.742 184.719 343.165 151.193 333.948 110 c 2
 303.336 0 l 1
 161.023 0 l 1
 36.4521 536.763 l 2
 35.4705 540.984 34.9997 545.2 34.9997 549.347 c 0
 34.9997 574.355 52.12 596.843 77.5771 602.763 c 0
 81.2871 603.625 84.9805 604.099 88.6396 604.2 c 0
EndSplineSet
Validated: 1
EndChar

StartChar: Y
Encoding: 89 89 55
Width: 532
VWidth: 0
Flags: W
HStem: 0 21G<202.302 312.302> 589.318 20G<64.3018 73.7648 441.306 455.406>
VStem: 202.302 110<0 259.875>
LayerCount: 2
Fore
SplineSet
64.3018 609.312 m 0
 65.0787 609.318 l 0
 82.4509 609.318 99.4956 601.062 110.208 585.656 c 2
 257.521 373.781 l 1
 404.864 585.656 l 2
 415.574 601.059 432.625 609.302 449.987 609.302 c 0
 460.824 609.302 471.782 606.091 481.396 599.406 c 2
 522.704 568.855 l 1
 312.302 259.875 l 1
 312.302 0 l 1
 202.302 0 l 1
 202.302 260.531 l 1
 19.8955 522.844 l 2
 13.211 532.457 10.0002 543.42 10.0002 554.262 c 0
 10.0002 571.634 18.2425 588.696 33.6455 599.406 c 0
 43.0264 605.93 53.7178 609.162 64.3018 609.312 c 0
EndSplineSet
Validated: 1
EndChar

StartChar: X
Encoding: 88 88 58
Width: 519
VWidth: 0
Flags: W
LayerCount: 2
Fore
SplineSet
74.6475 605.969 m 0
 75.0525 605.97 l 0
 92.5532 605.97 109.715 597.62 120.397 582.031 c 2
 257.585 381.844 l 1
 394.741 582.031 l 2
 405.423 597.62 422.585 605.97 440.086 605.97 c 0
 440.491 605.969 l 0
 451.075 605.891 461.753 602.771 471.179 596.312 c 0
 486.768 585.63 495.139 568.451 495.139 550.946 c 0
 495.139 540.229 492.001 529.389 485.46 519.844 c 2
 324.241 284.562 l 1
 498.376 29.5088 l 1
 454.384 -1.92871 l 2
 444.928 -8.40844 433.881 -11.5566 422.883 -11.5566 c 0
 405.213 -11.5566 387.67 -3.42985 377.054 12.0625 c 2
 257.554 186.438 l 1
 138.085 12.0625 l 2
 127.302 -3.6728 110.067 -12.156 92.6356 -12.156 c 0
 82.2231 -12.156 71.7408 -9.12897 62.5225 -2.8125 c 2
 60.7725 -1.625 l 2
 45.6291 8.75131 37.5321 25.516 37.5321 42.7314 c 0
 37.5321 53.5393 40.7235 64.5249 47.3662 74.2188 c 2
 190.897 284.562 l 1
 29.6787 519.844 l 2
 23.1378 529.389 19.9996 540.229 19.9996 550.946 c 0
 19.9996 568.451 28.3705 585.63 43.96 596.312 c 0
 53.3857 602.771 64.0635 605.891 74.6475 605.969 c 0
EndSplineSet
Validated: 1
EndChar

StartChar: E
Encoding: 69 69 59
Width: 492
VWidth: 0
Flags: W
HStem: 0 110<185 463.256> 238 110<185 422.402> 490 110<185 445.298>
VStem: 75 110<110 238 348 490>
LayerCount: 2
Fore
SplineSet
75 600 m 1
 457 600 l 1
 457 545 l 2
 457 514.53 432.47 490 402 490 c 2
 185 490 l 1
 185 348 l 1
 380 348 l 2
 410.333 345.111 435 323.47 435 293 c 0
 435 262.53 410.256 241.602 380 238 c 2
 185 238 l 1
 185 110 l 1
 420 110 l 2
 450.333 107.111 475 85.4697 475 55 c 0
 475 24.5303 450.43 1.57422 420 0 c 2
 75 0 l 1
 75 600 l 1
EndSplineSet
Validated: 1
EndChar

StartChar: F
Encoding: 70 70 60
Width: 487
VWidth: 0
Flags: W
HStem: 0 21G<75 185> 238 110<185 378.043> 490 110<185 445.298>
VStem: 75 110<0 238 348 490>
LayerCount: 2
Fore
SplineSet
75 600 m 1
 457 600 l 1
 457 545 l 2
 457 514.53 432.47 490 402 490 c 2
 185 490 l 1
 185 348 l 1
 334.745 348 l 2
 365.215 348 389.745 323.47 389.745 293 c 0
 389.745 262.53 365.215 238 334.745 238 c 2
 185 238 l 1
 185 0 l 1
 75 0 l 1
 75 600 l 1
EndSplineSet
Validated: 1
EndChar

StartChar: Z
Encoding: 90 90 61
Width: 446
VWidth: 0
Flags: W
HStem: 0 110<145.017 404.753> 490 110<45.8849 275.017>
LayerCount: 2
Fore
SplineSet
115.458 600 m 2
 379.259 600 l 2
 404.259 600 419.259 580 419.259 560 c 2
 419.259 520 l 2
 419.259 503.613 412.693 491.811 405.017 480 c 2
 145.017 110 l 1
 429.017 110 l 1
 429.017 80 429.017 0 349.017 0 c 2
 57.1377 0 l 2
 44.6377 0 15.0166 20 15.0166 40 c 2
 15.0166 90 l 2
 15.0056 90.4076 15.0001 90.8169 15.0001 91.2278 c 0
 15.0001 109.464 25.7559 130.82 38.8047 149.842 c 2
 275.017 490 l 1
 15.2588 490 l 1
 15.2588 538.104 24.9375 600 115.458 600 c 2
EndSplineSet
Validated: 1
EndChar

StartChar: K
Encoding: 75 75 62
Width: 508
VWidth: 0
Flags: W
HStem: 0 21G<75 185>
VStem: 75 110<0 203.219 392.781 600>
LayerCount: 2
Fore
SplineSet
371.656 584.844 m 2
 383.382 595.762 396.728 601.076 409.993 601.076 c 0
 423.882 601.076 437.681 595.251 449.438 583.938 c 2
 487.463 544.484 l 1
 245.406 298 l 1
 490.531 85.8438 l 2
 501.594 75.0339 507.146 60.7715 507.146 46.4965 c 0
 507.146 32.6505 501.923 18.7928 491.438 8.0625 c 0
 480.832 -2.79086 466.754 -7.93286 452.676 -7.93286 c 0
 438.485 -7.93286 424.293 -2.70881 413.656 7.15625 c 2
 185 203.219 l 1
 185 0 l 1
 75 0 l 1
 75 600 l 1
 185 600 l 1
 185 392.781 l 1
 371.656 584.844 l 2
EndSplineSet
Validated: 1
EndChar

StartChar: one
Encoding: 49 49 63
Width: 345
VWidth: 0
Flags: W
HStem: 0 21G<100 210> 410 20G<182.5 210>
VStem: 100 110<0 385.439>
LayerCount: 2
Fore
SplineSet
210 430 m 1
 210 0 l 1
 100 0 l 1
 100 310 l 2
 100 390 155 430 210 430 c 1
EndSplineSet
Validated: 1
EndChar

StartChar: two
Encoding: 50 50 64
Width: 500
VWidth: 0
Flags: W
HStem: -5 110<223.698 415.747> 317.031 102<101.901 317.647>
VStem: 317.752 110.196<240.398 258.926 258.926 309.312>
LayerCount: 2
Fore
SplineSet
156.011 419.031 m 2
 318.011 419.031 l 2
 386.163 419.031 424.945 379.1 427.854 332.406 c 1
 427.948 332.438 l 1
 427.948 331.812 l 1
 427.948 252.828 l 2
 427.948 222.828 406.961 197.879 388.323 186.422 c 2
 223.698 105 l 1
 440.011 105 l 1
 440.011 75 440.011 -5 360.011 -5 c 2
 102.136 -5 l 2
 75.9531 -5 60.0107 11.1084 60.0107 35 c 2
 60.0107 85 l 2
 60.0034 85.2723 59.9997 85.5442 59.9997 85.8155 c 0
 59.9997 103.977 76.3712 119.919 93.6982 132.812 c 1
 304.976 243.868 l 2
 311.685 247.222 317.752 252.368 317.752 258.926 c 0
 317.752 259.28 317.734 259.638 317.698 260 c 2
 317.698 309.312 l 1
 316.639 313.587 312.815 317.031 308.011 317.031 c 2
 76.0107 317.031 l 1
 76.0107 386.806 107.509 418.181 156.011 419.031 c 2
EndSplineSet
Validated: 1
EndChar

StartChar: three
Encoding: 51 51 65
Width: 440
VWidth: 0
Flags: W
HStem: -185.531 110<65.1893 267.181> 89.5312 86<104.277 257.088> 317.031 102<83.8968 257.036>
VStem: 257.088 109.981<175.531 186.414 186.414 309.312> 270.007 110<-74.3828 88.5386>
LayerCount: 2
Fore
SplineSet
138.007 419.031 m 2xf0
 257.132 419.031 l 2
 325.284 419.031 364.066 379.1 366.977 332.406 c 1
 367.069 332.438 l 1
 367.069 331.812 l 1
 367.069 161.657 l 2xf0
 367.069 142.137 355.007 132 341.727 125.031 c 1
 365.007 117 380.007 84.5137 380.007 62 c 2
 380.007 -65.5312 l 1
 380.007 -67.5312 l 2
 380.007 -141.559 332.036 -185.531 264.007 -185.531 c 2
 110.007 -185.531 l 2
 41.9395 -185.531 40 -87.71 40 -76.5615 c 0
 40 -75.8887 40.0068 -75.5312 40.0068 -75.5312 c 1
 260.007 -75.5312 l 2
 264.882 -75.4062 269.882 -70.5312 270.007 -65.5312 c 2
 270.007 79.5312 l 2xe8
 269.882 84.5312 264.882 89.4062 260.007 89.5312 c 2
 138.926 89.5312 l 2
 115.592 89.5312 97.2393 113.486 97.2393 134 c 0
 97.2393 154.514 119.242 175.531 140.242 175.531 c 2
 246.48 175.531 l 2
 252.069 175.531 257.088 180.135 257.088 186.414 c 2
 257.088 309.312 l 1
 256.027 313.587 252.204 317.031 247.4 317.031 c 2
 58.0068 317.031 l 1
 58.0068 386.806 89.5049 418.181 138.007 419.031 c 2xf0
EndSplineSet
Validated: 1
EndChar

StartChar: four
Encoding: 52 52 66
Width: 466
VWidth: 0
Flags: W
HStem: -185.114 21G<255.896 365.896> 0 88.9482<151.597 255.896 365.896 429.733> 400 20G<302.595 326.131>
VStem: 255.896 110<-185.114 0 88.9482 233.941>
LayerCount: 2
Fore
SplineSet
310.896 420 m 0
 341.366 420 365.896 395.47 365.896 365 c 2
 365.896 87.7188 l 1
 392.754 87.7188 l 2
 417.049 87.7188 436.629 68.1709 436.629 43.875 c 2
 436.629 0 l 1
 365.896 0 l 1
 365.896 -185.114 l 1
 255.896 -185.114 l 1
 255.896 0 l 1
 80.4863 0 l 2
 51.0595 0 29.9997 26.3759 29.9997 54.3531 c 0
 29.9997 64.6404 32.8471 75.1442 39.1729 84.6328 c 2
 259.396 390.344 l 2
 262.333 394.464 265.707 398.079 269.396 401.156 c 0
 279.465 412.716 294.293 420 310.896 420 c 0
255.896 233.941 m 1
 151.597 88.9482 l 1
 255.896 88.9482 l 1
 255.896 233.941 l 1
EndSplineSet
Validated: 1
EndChar

StartChar: five
Encoding: 53 53 67
Width: 477
VWidth: 0
Flags: W
HStem: -189.463 102<81.2003 319.383> 85 88.242<172 322> 318 102<172 386.11>
VStem: 62 110<173.242 318> 322 110<-85.9372 -77.4971 -77.4971 82.8751>
LayerCount: 2
Fore
SplineSet
62 330 m 0
 63.2031 378.135 102.204 420 172 420 c 2
 332 420 l 2
 380.502 419.149 412 387.774 412 318 c 1
 172 318 l 1
 172 275.414 172 215.828 172 173.242 c 1
 322 173.242 l 2
 392.804 173.242 432 118.098 432 57.9287 c 2
 432 -79.4629 l 2
 432 -149.463 392 -189.463 312 -189.463 c 2
 130 -189.463 l 2
 78.1426 -189.463 60 -147.492 60 -87.4629 c 1
 312 -87.4629 l 2
 317.304 -87.4629 322 -82.8008 322 -77.4971 c 2
 322 76.2207 l 2
 322 80.9932 316.95 85 312 85 c 2
 62 85 l 1
 62 168.333 62 246.667 62 330 c 0
EndSplineSet
Validated: 1
EndChar

StartChar: six
Encoding: 54 54 68
Width: 500
VWidth: 0
Flags: W
HStem: -6 116<171.129 338.871> 302.343 108<170.066 338.871> 504.143 101.515<172.826 396.399>
VStem: 60 110.062<111.708 302.343 408.655 501.182> 339.938 110.062<111.708 301.568>
LayerCount: 2
Fore
SplineSet
176 605.657 m 2
 350 605.657 l 2
 418.068 605.657 420.007 515.382 420.007 505.094 c 0
 420.007 504.472 420 504.143 420 504.143 c 1
 180 504.143 l 2
 175.125 504.018 170.125 499.143 170 494.143 c 2
 170 408.655 l 1
 176.884 409.763 183.95 410.343 191.156 410.343 c 2
 318.844 410.343 l 2
 391.511 410.343 450 367.511 450 294.844 c 2
 450 125.156 l 2
 450 52.4893 391.511 -6 318.844 -6 c 2
 191.156 -6 l 2
 118.489 -6 60 52.4893 60 125.156 c 2
 60 487.657 l 2
 60 561.684 107.971 605.657 176 605.657 c 2
180 302.343 m 2
 174.5 302.343 170.062 297.905 170.062 292.405 c 2
 170.062 119.938 l 2
 170.062 114.438 174.5 110 180 110 c 2
 330 110 l 2
 335.5 110 339.938 114.438 339.938 119.938 c 2
 339.938 292.405 l 2
 339.938 297.905 335.5 302.343 330 302.343 c 2
 180 302.343 l 2
EndSplineSet
Validated: 1
EndChar

StartChar: nine
Encoding: 57 57 69
Width: 500
VWidth: 0
Flags: W
HStem: -189.688 110<105.183 327.174> 8.3125 108<161.129 329.938> 308.312 110<161.129 328.871>
VStem: 50 110.062<119.412 307.184> 329.938 110.062<-78.5391 10 116.312 126.25 126.25 307.184>
LayerCount: 2
Fore
SplineSet
324 -189.688 m 2
 150 -189.688 l 2
 81.9326 -189.688 79.9932 -91.8662 79.9932 -80.7178 c 0
 79.9932 -80.0449 80 -79.6875 80 -79.6875 c 1
 320 -79.6875 l 2
 324.875 -79.5625 329.875 -74.6875 330 -69.6875 c 2
 330 10 l 1
 323.116 8.89258 316.05 8.3125 308.844 8.3125 c 2
 181.156 8.3125 l 2
 108.489 8.3125 50 56.8018 50 129.469 c 2
 50 287.156 l 2
 50 359.823 108.489 418.312 181.156 418.312 c 2
 308.844 418.312 l 2
 381.511 418.312 440 359.823 440 287.156 c 2
 440 -71.6875 l 2
 440 -145.715 392.029 -189.688 324 -189.688 c 2
170 116.312 m 2
 320 116.312 l 2
 325.5 116.312 329.938 120.75 329.938 126.25 c 2
 329.938 298.375 l 2
 329.938 303.875 325.5 308.312 320 308.312 c 2
 170 308.312 l 2
 164.5 308.312 160.062 303.875 160.062 298.375 c 2
 160.062 126.25 l 2
 160.062 120.75 164.5 116.312 170 116.312 c 2
EndSplineSet
Validated: 1
EndChar

StartChar: zero
Encoding: 48 48 70
Width: 470
VWidth: 0
Flags: W
HStem: 0 110<170.062 298.934> 310 110<171.129 300>
VStem: 60 110.062<110 308.871> 300 110.062<111.129 310>
LayerCount: 2
Fore
SplineSet
191.156 420 m 2
 350 420 l 2
 370 420 410.062 390 410.062 350 c 2
 410.062 131.156 l 2
 410.062 58.4893 351.573 0 278.906 0 c 2
 140 0 l 2
 110 0 60 40 60 80 c 2
 60 288.844 l 2
 60 361.511 118.489 420 191.156 420 c 2
180 310 m 2
 174.5 310 170.062 305.562 170.062 300.062 c 2
 170.062 119.938 l 2
 170.062 114.438 174.5 110 180 110 c 2
 290.062 110 l 2
 295.562 110 300 114.438 300 119.938 c 2
 300 300.062 l 2
 300 305.562 295.562 310 290.062 310 c 2
 180 310 l 2
EndSplineSet
Validated: 1
EndChar

StartChar: seven
Encoding: 55 55 71
Width: 502
VWidth: 0
Flags: W
HStem: -186 21G<149.406 255.254> 310 110<72.7389 322.094>
LayerCount: 2
Fore
SplineSet
117 420 m 2
 397 420 l 2
 427.47 420 452 395.47 452 365 c 2
 452 340.25 l 2
 452 326.75 450 317.188 445.5 307.188 c 2
 290.37 -158.162 l 2
 283.37 -175.662 263.508 -186 247 -186 c 2
 149.406 -186 l 1
 322.094 310 l 1
 50 310 l 1
 50 355.105 61.5801 420 117 420 c 2
EndSplineSet
Validated: 1
EndChar

StartChar: eight
Encoding: 56 56 72
Width: 491
VWidth: 0
Flags: W
HStem: -6 116<169.129 322.652> 276 74<184.062 307.719> 493.156 108<185.129 306.652>
VStem: 58 110.062<111.708 274.828> 74 110.062<350.854 490.057> 307.719 110.062<350.854 490.057> 323.719 110.062<111.708 274.828>
LayerCount: 2
Fore
SplineSet
205.156 601.156 m 2xe8
 286.625 601.156 l 2
 359.292 601.156 417.781 552.667 417.781 480 c 2
 417.781 395.156 l 2xec
 417.781 364.967 407.669 337.243 390.656 315.125 c 1
 416.909 299.732 433.781 269.03 433.781 238.844 c 2
 433.781 125.156 l 2
 433.781 52.4893 375.292 -6 302.625 -6 c 2
 189.156 -6 l 2
 116.489 -6 58 52.4893 58 125.156 c 2
 58 238.844 l 2xf2
 58 269.03 74.8721 299.732 101.125 315.125 c 1
 84.1123 337.243 74 364.967 74 395.156 c 2
 74 480 l 2
 74 552.667 132.489 601.156 205.156 601.156 c 2xe8
297.781 493.156 m 2
 194 493.156 l 2
 188.5 493.156 184.062 488.719 184.062 483.219 c 2
 184.062 359.938 l 2
 184.062 354.438 188.5 350 194 350 c 2
 297.781 350 l 2
 303.281 350 307.719 354.438 307.719 359.938 c 2
 307.719 483.219 l 2
 307.719 488.719 303.281 493.156 297.781 493.156 c 2
313.781 276 m 2
 178 276 l 2
 172.5 276 168.062 271.562 168.062 266.062 c 2
 168.062 119.938 l 2
 168.062 114.438 172.5 110 178 110 c 2
 313.781 110 l 2
 319.281 110 323.719 114.438 323.719 119.938 c 2
 323.719 266.062 l 2xf2
 323.719 271.562 319.281 276 313.781 276 c 2
EndSplineSet
Validated: 1
EndChar

StartChar: acute
Encoding: 180 180 73
Width: 335
VWidth: 0
Flags: W
HStem: 448.577 160.394
VStem: 48 237.855
LayerCount: 2
Fore
SplineSet
279.957 587.68 m 0
 283.923 580.81 285.855 573.126 285.855 565.567 c 0
 285.855 550.978 278.661 536.856 265.011 529.954 c 2
 92.0869 451.036 l 2
 88.6399 449.373 84.9686 448.577 81.3392 448.577 c 0
 72.7573 448.577 64.4091 453.028 59.8115 460.99 c 2
 48 480.318 l 1
 221.83 603.272 l 2
 228.52 607.135 235.828 608.971 243.04 608.971 c 0
 257.755 608.971 272.076 601.33 279.957 587.68 c 0
EndSplineSet
Validated: 1
EndChar

StartChar: grave
Encoding: 96 96 74
Width: 335
VWidth: 0
Flags: W
HStem: 448.577 160.394
VStem: 48.0004 237.855
LayerCount: 2
Fore
SplineSet
53.8984 587.68 m 0
 61.7791 601.33 76.0993 608.971 90.8149 608.971 c 0
 98.0273 608.971 105.335 607.135 112.025 603.272 c 2
 285.855 480.318 l 1
 274.044 460.99 l 2
 269.446 453.028 261.098 448.577 252.516 448.577 c 0
 248.887 448.577 245.216 449.373 241.769 451.036 c 2
 68.8438 529.954 l 2
 55.1943 536.855 48.0004 550.978 48.0004 565.566 c 0
 48.0004 573.125 49.9322 580.81 53.8984 587.68 c 0
EndSplineSet
Validated: 1
EndChar

StartChar: dieresis
Encoding: 168 168 75
Width: 359
VWidth: 0
Flags: W
HStem: 487.729 111.958<49.9443 138.012 221.944 310.012>
VStem: 38 111.956<499.674 587.742> 210 111.956<499.674 587.742>
LayerCount: 2
Fore
SplineSet
149.956 543.708 m 0
 149.956 512.808 124.878 487.729 93.9785 487.729 c 0
 63.0781 487.729 38 512.808 38 543.708 c 0
 38 574.608 63.0781 599.687 93.9785 599.687 c 0
 124.878 599.687 149.956 574.608 149.956 543.708 c 0
321.956 543.708 m 0
 321.956 512.808 296.878 487.729 265.978 487.729 c 0
 235.078 487.729 210 512.808 210 543.708 c 0
 210 574.608 235.078 599.687 265.978 599.687 c 0
 296.878 599.687 321.956 574.608 321.956 543.708 c 0
EndSplineSet
Validated: 1
EndChar

StartChar: dotlessi
Encoding: 305 305 76
Width: 240
VWidth: 0
Flags: W
HStem: 0 21G<65.8545 175.854> 400 20G<105.619 136.089>
VStem: 65.8545 110<0 408.298>
LayerCount: 2
Fore
SplineSet
120.854 420 m 0
 151.324 420 175.854 395.47 175.854 365 c 2
 175.854 0 l 1
 65.8545 0 l 1
 65.8545 365 l 2
 65.8545 395.47 90.3848 420 120.854 420 c 0
EndSplineSet
Validated: 1
EndChar

StartChar: caron
Encoding: 711 711 77
Width: 369
VWidth: 0
Flags: W
HStem: 456.658 160.248
VStem: 29 311.812
LayerCount: 2
Fore
SplineSet
40.8125 604.562 m 6
 46.2856 612.083 54.1863 616.906 62.7345 616.906 c 4
 66.1228 616.906 69.6128 616.148 73.0938 614.5 c 5
 73.125 614.562 l 5
 184.906 545.219 l 5
 296.719 614.562 l 5
 296.75 614.5 l 5
 300.202 616.165 303.876 616.963 307.507 616.963 c 4
 316.076 616.963 324.405 612.521 329 604.562 c 6
 340.812 585.219 l 5
 207 462.281 l 5
 199.709 458.592 192.139 456.658 184.575 456.658 c 4
 177.239 456.658 169.908 458.478 162.844 462.281 c 5
 29 585.219 l 5
 40.8125 604.562 l 6
EndSplineSet
Validated: 1
EndChar

StartChar: circumflex
Encoding: 710 710 78
Width: 369
VWidth: 0
Flags: W
HStem: 451.658 160.305
VStem: 29 311.812
LayerCount: 2
Fore
SplineSet
40.8125 464.059 m 2
 29 483.402 l 1
 162.844 606.34 l 1
 169.908 610.144 177.238 611.963 184.575 611.963 c 0
 192.139 611.963 199.709 610.028 207 606.34 c 1
 340.812 483.402 l 1
 329 464.059 l 2
 324.405 456.1 316.076 451.658 307.507 451.658 c 0
 303.876 451.658 300.202 452.456 296.75 454.121 c 1
 296.719 454.059 l 1
 184.906 523.402 l 1
 73.125 454.059 l 1
 73.0938 454.121 l 1
 69.6133 452.474 66.123 451.716 62.7344 451.716 c 0
 54.1865 451.716 46.2852 456.539 40.8125 464.059 c 2
EndSplineSet
Validated: 1
EndChar

StartChar: ring
Encoding: 730 730 79
Width: 324
VWidth: 0
Flags: W
HStem: 455.031 43.5938<128.103 196.329> 575.881 43.5938<128.103 196.329>
VStem: 80 43.5938<503.146 571.372> 200.85 43.5938<503.146 571.372>
LayerCount: 2
Fore
SplineSet
162.21 619.475 m 0
 207.594 619.475 244.443 582.648 244.443 537.265 c 0
 244.443 491.881 207.594 455.031 162.21 455.031 c 0
 116.826 455.031 80 491.881 80 537.265 c 0
 80 582.648 116.826 619.475 162.21 619.475 c 0
162.211 575.881 m 0
 140.891 575.881 123.594 558.584 123.594 537.264 c 0
 123.594 515.943 140.891 498.625 162.211 498.625 c 0
 183.531 498.625 200.85 515.943 200.85 537.264 c 0
 200.85 558.584 183.531 575.881 162.211 575.881 c 0
EndSplineSet
Validated: 524289
EndChar

StartChar: breve
Encoding: 728 728 80
Width: 421
VWidth: 0
Flags: W
HStem: 460.031 73.1855<157.13 264.759>
VStem: 60 301.906
LayerCount: 2
Fore
SplineSet
95.6562 604.438 m 0
 104.581 604.399 114.005 601.583 120.156 595.25 c 0
 144.383 570.308 164.571 533.218 210.969 533.217 c 0
 257.366 533.217 277.529 570.312 301.75 595.25 c 0
 307.944 601.626 317.467 604.435 326.447 604.435 c 0
 334.256 604.435 341.653 602.312 346.094 598.562 c 2
 361.906 585.219 l 1
 324.23 520.867 282.542 460.031 210.969 460.031 c 0
 140.81 460.031 93.6084 520.331 60 585.219 c 1
 75.8125 598.562 l 2
 80.2537 602.312 87.6663 604.438 95.4748 604.438 c 0
 95.6562 604.438 l 0
EndSplineSet
Validated: 1
EndChar

StartChar: periodcentered
Encoding: 183 183 82
Width: 231
VWidth: 0
Flags: W
HStem: 254.912 111.957<71.9443 160.012>
VStem: 60 111.957<266.857 354.925>
LayerCount: 2
Fore
SplineSet
171.957 310.891 m 4
 171.957 279.991 146.878 254.912 115.979 254.912 c 4
 85.0781 254.912 60 279.991 60 310.891 c 4
 60 341.791 85.0781 366.869 115.979 366.869 c 4
 146.878 366.869 171.957 341.791 171.957 310.891 c 4
EndSplineSet
Validated: 1
EndChar

StartChar: parenright
Encoding: 41 41 83
Width: 322
VWidth: 0
Flags: W
HStem: 590.349 20G<77.8008 85.1805>
VStem: 124.484 108.066<-81.2852 -30 -30 447.312 447.312 498.594>
LayerCount: 2
Fore
SplineSet
77.8008 610.344 m 0
 78.5127 610.349 l 0
 91.8483 610.349 106.469 604.486 118.551 590.125 c 2
 212.176 504.25 l 2
 229.176 487.75 232.551 469.363 232.551 447.312 c 2
 232.551 -30 l 2
 232.551 -52.0508 229.176 -70.4688 212.176 -86.9688 c 2
 118.551 -172.844 l 2
 106.47 -187.204 91.8516 -193.066 78.5176 -193.066 c 0
 57.6927 -193.066 40.0006 -178.768 40.0006 -160.214 c 0
 40.0006 -153.794 42.1184 -146.866 46.957 -139.844 c 1
 110.395 -74.0938 l 1
 121.479 -57.467 124.484 -50.9991 124.484 -34.3462 c 0
 124.484 -32.9708 124.464 -31.5259 124.426 -30 c 1
 124.238 -30 l 1
 124.238 447.312 l 1
 124.426 447.312 l 1
 124.464 448.838 124.484 450.283 124.484 451.659 c 0
 124.484 468.312 121.479 474.78 110.395 491.406 c 1
 46.957 557.125 l 1
 42.1181 564.148 40.0001 571.077 40.0001 577.497 c 0
 40.0001 595.839 57.2863 610.022 77.8008 610.344 c 0
EndSplineSet
Validated: 1
EndChar

StartChar: parenleft
Encoding: 40 40 84
Width: 322
VWidth: 0
Flags: W
HStem: 590.344 20G<237.37 255.007>
VStem: 90 108.066<-81.2852 -30 -30 447.312 447.312 498.594>
LayerCount: 2
Fore
SplineSet
244.75 610.344 m 0
 265.265 610.021 282.551 595.839 282.551 577.497 c 0
 282.551 571.077 280.433 564.147 275.594 557.125 c 1
 212.156 491.406 l 1
 201.072 474.779 198.066 468.312 198.066 451.659 c 0
 198.066 450.283 198.087 448.838 198.125 447.312 c 1
 198.312 447.312 l 1
 198.312 -30 l 1
 198.125 -30 l 1
 198.087 -31.5254 198.066 -32.9707 198.066 -34.3467 c 0
 198.066 -50.999 201.072 -57.4668 212.156 -74.0938 c 1
 275.594 -139.844 l 1
 280.433 -146.866 282.55 -153.795 282.55 -160.214 c 0
 282.55 -178.768 264.858 -193.066 244.033 -193.066 c 0
 230.699 -193.066 216.081 -187.204 204 -172.844 c 2
 110.375 -86.9688 l 2
 93.375 -70.4688 90 -52.0508 90 -30 c 2
 90 447.312 l 2
 90 469.363 93.375 487.75 110.375 504.25 c 2
 204 590.125 l 2
 216.082 604.486 230.702 610.344 244.038 610.344 c 0
 244.75 610.344 l 0
EndSplineSet
Validated: 1
EndChar

StartChar: uni0237
Encoding: 567 567 85
Width: 239
VWidth: 0
Flags: W
HStem: 400 20G<104.005 134.475>
VStem: 64.4862 109.754<-81.2807 -30 -30 408.298>
LayerCount: 2
Fore
SplineSet
119.24 420 m 4
 149.71 420 174.24 395.47 174.24 365 c 6
 174.24 -30 l 6
 174.24 -52.0508 169.187 -70.4561 152.187 -86.9561 c 6
 58.5586 -172.832 l 6
 46.4773 -187.193 31.8575 -193.055 18.5219 -193.055 c 4
 -2.3051 -193.055 -19.9997 -178.756 -19.9997 -160.203 c 4
 -19.9997 -153.784 -17.8821 -146.856 -13.0439 -139.835 c 5
 50.3838 -74.0898 l 5
 61.4713 -57.4586 64.4862 -50.995 64.4862 -34.3325 c 4
 64.4862 -32.9612 64.4658 -31.5208 64.4277 -30 c 5
 64.2402 -30 l 5
 64.2402 365 l 6
 64.2402 395.47 88.7705 420 119.24 420 c 4
EndSplineSet
Validated: 1
EndChar

StartChar: tcaron
Encoding: 357 357 194
Width: 406
VWidth: 0
Flags: W
HStem: 0 21G<120 230> 310 110<41.7017 120 230 288.298>
VStem: 120 110<0 310 420 588.298> 331 122.797<495.066 584.291> 374.931 78.8662<435.57 476.608 476.608 494.285>
LayerCount: 2
Fore
SplineSet
175 600 m 0xe0
 205.47 600 230 575.47 230 545 c 2
 230 420 l 1
 245 420 l 2
 275.47 420 300 395.47 300 365 c 2
 300 310 l 1
 230 310 l 1
 230 0 l 1
 120 0 l 1
 120 310 l 1
 85 310 l 2
 54.5303 310 30 334.53 30 365 c 0
 30 395.47 54.5303 420 85 420 c 2
 120 420 l 1
 120 545 l 2
 120 575.47 144.53 600 175 600 c 0xe0
393.359 600 m 0
 426.715 600 453.797 572.918 453.797 539.562 c 2
 453.797 497.625 l 2
 453.797 477.122 447.559 458.568 439.547 445.968 c 2
 387.609 372.031 l 2
 378.9 361.678 368.362 357.452 358.752 357.452 c 0
 343.746 357.452 331 367.755 331 381.126 c 0xf0
 331 385.754 332.527 390.749 336.016 395.812 c 2
 369.703 460.906 l 1
 373.812 466.403 374.931 471.292 374.931 476.523 c 0xe8
 374.931 478.326 374.798 480.17 374.609 482.094 c 1
 350.426 489.99 332.953 512.748 332.953 539.562 c 0
 332.953 572.918 360.004 600 393.359 600 c 0
EndSplineSet
Validated: 524289
EndChar

StartChar: uni0202
Encoding: 514 514 239
Width: 518
VWidth: 0
HStem: -5.06944 21<85.6998 97.3757 421.139 432.785> 129.469 110<205.854 313.229> 731.221 73.1865<211.89 319.519>
LayerCount: 2
Fore
SplineSet
150.416 660 m 4
 150.234 660 l 4
 142.426 660 135.014 662.126 130.572 665.876 c 6
 114.76 679.219 l 5
 148.368 744.107 195.57 804.407 265.729 804.407 c 4
 337.302 804.407 378.99 743.571 416.666 679.219 c 5
 400.854 665.876 l 6
 396.413 662.126 389.016 660.003 381.207 660.003 c 4
 372.227 660.003 362.704 662.812 356.51 669.188 c 4
 332.289 694.126 312.126 731.221 265.729 731.221 c 4
 219.331 731.22 199.143 694.13 174.916 669.188 c 4
 168.765 662.855 159.341 660.039 150.416 660 c 4
EndSplineSet
Refer: 45 65 N 1 0 0 1 0 0 3
Validated: 524289
EndChar

StartChar: uni0203
Encoding: 515 515 240
Width: 493
VWidth: 0
HStem: -5.53777 113.165<153 238.874> 168.201 100.012<153 264.094> 310 110<138.182 320.916> 551.221 73.1865<204.177 311.806>
VStem: 43 110<107.627 168.201> 323 110<0 37.6562 107.627 168.201 234.938 307.916>
LayerCount: 2
Fore
SplineSet
142.703 480 m 4
 142.521 480 l 4
 134.713 480 127.301 482.126 122.859 485.876 c 6
 107.047 499.219 l 5
 140.655 564.107 187.857 624.407 258.016 624.407 c 4
 329.589 624.407 371.277 563.571 408.953 499.219 c 5
 393.141 485.876 l 6
 388.7 482.126 381.303 480.003 373.494 480.003 c 4
 364.514 480.003 354.991 482.812 348.797 489.188 c 4
 324.576 514.126 304.413 551.221 258.016 551.221 c 4
 211.618 551.22 191.43 514.13 167.203 489.188 c 4
 161.052 482.855 151.628 480.039 142.703 480 c 4
EndSplineSet
Refer: 3 97 N 1 0 0 1 0 0 3
Validated: 524289
EndChar

StartChar: uni0206
Encoding: 518 518 241
Width: 492
VWidth: 0
HStem: 0 110<185 463.256> 238 110<185 422.402> 490 110<185 445.298> 731.221 73.186<212.177 319.806>
VStem: 75 110<110 238 348 490>
LayerCount: 2
Fore
SplineSet
150.703 660 m 0
 150.521 660 l 0
 142.713 660 135.301 662.126 130.859 665.876 c 2
 115.047 679.219 l 1
 148.655 744.107 195.857 804.407 266.016 804.407 c 0
 337.589 804.407 379.277 743.571 416.953 679.219 c 1
 401.141 665.876 l 2
 396.7 662.126 389.303 660.003 381.494 660.003 c 0
 372.514 660.003 362.991 662.812 356.797 669.188 c 0
 332.576 694.126 312.413 731.221 266.016 731.221 c 0
 219.618 731.22 199.43 694.13 175.203 669.188 c 0
 169.052 662.855 159.628 660.039 150.703 660 c 0
EndSplineSet
Refer: 59 69 N 1 0 0 1 0 0 3
Validated: 1
EndChar

StartChar: uni0207
Encoding: 519 519 242
Width: 511
VWidth: 0
HStem: -8 110<171.809 391.893> 173.031 75.9688<170.062 361.156> 316 104<171.129 360.027> 551.221 73.186<211.755 319.384>
VStem: 60 110.062<102.663 132 132 173.031 249 315.343> 361.156 110<249 315.343>
LayerCount: 2
Fore
SplineSet
150.281 480 m 0
 150.1 480 l 0
 142.291 480 134.879 482.126 130.438 485.876 c 2
 114.625 499.219 l 1
 148.233 564.107 195.436 624.407 265.594 624.407 c 0
 337.167 624.407 378.855 563.571 416.531 499.219 c 1
 400.719 485.876 l 2
 396.278 482.126 388.881 480.003 381.072 480.003 c 0
 372.092 480.003 362.569 482.812 356.375 489.188 c 0
 332.154 514.126 311.991 551.221 265.594 551.221 c 0
 219.196 551.22 199.008 514.13 174.781 489.188 c 0
 168.63 482.855 159.206 480.039 150.281 480 c 0
EndSplineSet
Refer: 11 101 N 1 0 0 1 0 0 3
Validated: 1
EndChar

StartChar: uni020A
Encoding: 522 522 243
Width: 230
VWidth: 0
HStem: 0 21<60 170> 731.221 73.186<88.6772 196.306>
VStem: -8.45312 301.906 60 110<0 588.298>
LayerCount: 2
Fore
SplineSet
27.2031 660 m 0xe0
 27.0215 660 l 0
 19.2129 660 11.8008 662.126 7.35938 665.876 c 2
 -8.45312 679.219 l 1
 25.1553 744.107 72.3574 804.407 142.516 804.407 c 0
 214.089 804.407 255.777 743.571 293.453 679.219 c 1
 277.641 665.876 l 2
 273.2 662.126 265.803 660.003 257.994 660.003 c 0
 249.014 660.003 239.491 662.812 233.297 669.188 c 0
 209.076 694.126 188.913 731.221 142.516 731.221 c 0
 96.1182 731.22 75.9297 694.13 51.7031 669.188 c 0
 45.5518 662.855 36.1279 660.039 27.2031 660 c 0xe0
EndSplineSet
Refer: 49 73 N 1 0 0 1 0 0 3
Validated: 1
EndChar

StartChar: uni020B
Encoding: 523 523 244
Width: 240
VWidth: 0
HStem: 0 21<65.8545 175.854> 400 20<105.619 136.089> 551.221 73.186<66.1772 173.806>
VStem: -30.9531 301.906 65.8545 110<0 408.298>
LayerCount: 2
Fore
SplineSet
4.70312 480 m 0xf0
 4.52148 480 l 0
 -3.28711 480 -10.6992 482.126 -15.1406 485.876 c 2
 -30.9531 499.219 l 1
 2.65527 564.107 49.8574 624.407 120.016 624.407 c 0
 191.589 624.407 233.277 563.571 270.953 499.219 c 1
 255.141 485.876 l 2
 250.7 482.126 243.303 480.003 235.494 480.003 c 0
 226.514 480.003 216.991 482.812 210.797 489.188 c 0
 186.576 514.126 166.413 551.221 120.016 551.221 c 0
 73.6182 551.22 53.4297 514.13 29.2031 489.188 c 0
 23.0518 482.855 13.6279 480.039 4.70312 480 c 0xf0
EndSplineSet
Refer: 76 305 N 1 0 0 1 0 0 3
Validated: 1
EndChar

StartChar: uni020E
Encoding: 526 526 245
Width: 581
VWidth: 0
HStem: 0 110<186.129 395.027> 490 110<186.129 395.027> 731.221 73.186<236.755 344.384>
VStem: 75 110.062<111.129 488.871> 396.094 110.062<111.129 488.871>
LayerCount: 2
Fore
SplineSet
175.281 660 m 0
 175.1 660 l 0
 167.291 660 159.879 662.126 155.438 665.876 c 2
 139.625 679.219 l 1
 173.233 744.107 220.436 804.407 290.594 804.407 c 0
 362.167 804.407 403.855 743.571 441.531 679.219 c 1
 425.719 665.876 l 2
 421.278 662.126 413.881 660.003 406.072 660.003 c 0
 397.092 660.003 387.569 662.812 381.375 669.188 c 0
 357.154 694.126 336.991 731.221 290.594 731.221 c 0
 244.196 731.22 224.008 694.13 199.781 669.188 c 0
 193.63 662.855 184.206 660.039 175.281 660 c 0
EndSplineSet
Refer: 38 79 N 1 0 0 1 0 0 3
Validated: 1
EndChar

StartChar: uni020F
Encoding: 527 527 246
Width: 550
VWidth: 0
HStem: -7 110<171.129 378.871> 311 109<171.129 378.871> 551.221 73.186<221.177 328.806>
VStem: 60 110.062<104.129 309.846> 379.938 110.062<104.129 309.846>
LayerCount: 2
Fore
SplineSet
159.703 480 m 0
 159.521 480 l 0
 151.713 480 144.301 482.126 139.859 485.876 c 2
 124.047 499.219 l 1
 157.655 564.107 204.857 624.407 275.016 624.407 c 0
 346.589 624.407 388.277 563.571 425.953 499.219 c 1
 410.141 485.876 l 2
 405.7 482.126 398.303 480.003 390.494 480.003 c 0
 381.514 480.003 371.991 482.812 365.797 489.188 c 0
 341.576 514.126 321.413 551.221 275.016 551.221 c 0
 228.618 551.22 208.43 514.13 184.203 489.188 c 0
 178.052 482.855 168.628 480.039 159.703 480 c 0
EndSplineSet
Refer: 8 111 N 1 0 0 1 0 0 3
Validated: 1
EndChar

StartChar: uni0212
Encoding: 530 530 247
Width: 500
VWidth: 0
HStem: 0 21<75 185 404.704 419.001> 238 110<185 277.188> 489.062 110.938<185 331.943> 731.221 73.1865<196.177 303.806>
VStem: 75 110<0 238 348 489.062> 335 110<348 358 358 487.529>
LayerCount: 2
Fore
SplineSet
134.703 660 m 4
 134.521 660 l 4
 126.713 660 119.301 662.126 114.859 665.876 c 6
 99.0469 679.219 l 5
 132.655 744.107 179.857 804.407 250.016 804.407 c 4
 321.589 804.407 363.277 743.571 400.953 679.219 c 5
 385.141 665.876 l 6
 380.7 662.126 373.303 660.003 365.494 660.003 c 4
 356.514 660.003 346.991 662.812 340.797 669.188 c 4
 316.576 694.126 296.413 731.221 250.016 731.221 c 4
 203.618 731.22 183.43 694.13 159.203 669.188 c 4
 153.052 662.855 143.628 660.039 134.703 660 c 4
EndSplineSet
Refer: 42 82 N 1 0 0 1 0 0 3
Validated: 524289
EndChar

StartChar: uni0213
Encoding: 531 531 248
Width: 415
VWidth: 0
HStem: 0 21<60 170> 310 112.039<209.406 374.162> 553.26 73.186<191.202 298.83>
VStem: 60 110<0 310 389 420>
LayerCount: 2
Fore
SplineSet
129.728 482.039 m 0
 129.546 482.039 l 0
 121.737 482.039 114.325 484.165 109.884 487.915 c 2
 94.0713 501.258 l 1
 127.68 566.146 174.882 626.446 245.04 626.446 c 0
 316.613 626.446 358.302 565.61 395.978 501.258 c 1
 380.165 487.915 l 2
 375.725 484.165 368.327 482.042 360.519 482.042 c 0
 351.538 482.042 342.016 484.852 335.821 491.227 c 0
 311.601 516.165 291.438 553.26 245.04 553.26 c 0
 198.643 553.259 178.454 516.169 154.228 491.227 c 0
 148.076 484.895 138.652 482.078 129.728 482.039 c 0
EndSplineSet
Refer: 6 114 N 1 0 0 1 0 0 3
Validated: 1
EndChar

StartChar: uni0216
Encoding: 534 534 249
Width: 552
VWidth: 0
HStem: 0 110.094<185 367.028> 735.597 73.186<76.4105 184.039>
VStem: 75 110<110.094 593.835> 367.031 110<110.094 589.301>
LayerCount: 2
Fore
SplineSet
14.9365 664.376 m 0
 14.7549 664.376 l 0
 6.94629 664.376 -0.46582 666.502 -4.90723 670.252 c 2
 -20.7197 683.595 l 1
 12.8887 748.483 60.0908 808.783 130.249 808.783 c 0
 201.822 808.783 243.511 747.947 281.187 683.595 c 1
 265.374 670.252 l 2
 260.934 666.502 253.536 664.379 245.728 664.379 c 0
 236.747 664.379 227.225 667.188 221.03 673.564 c 0
 196.81 698.502 176.646 735.597 130.249 735.597 c 0
 83.8516 735.596 63.6631 698.506 39.4365 673.564 c 0
 33.2852 667.23 23.8613 664.415 14.9365 664.376 c 0
EndSplineSet
Refer: 47 85 N 1 0 0 1 0 0 3
Validated: 1
EndChar

StartChar: uni0217
Encoding: 535 535 250
Width: 510
VWidth: 0
HStem: -1.54464 111.593<170 285.218> 400 20<60 170 340 450> 551.221 73.186<201.177 308.806>
VStem: 60 110<110.048 420> 340 110<0 31.5938 110.048 120 120 420>
LayerCount: 2
Fore
SplineSet
139.703 480 m 0
 139.521 480 l 0
 131.713 480 124.301 482.126 119.859 485.876 c 2
 104.047 499.219 l 1
 137.655 564.107 184.857 624.407 255.016 624.407 c 0
 326.589 624.407 368.277 563.571 405.953 499.219 c 1
 390.141 485.876 l 2
 385.7 482.126 378.303 480.003 370.494 480.003 c 0
 361.514 480.003 351.991 482.812 345.797 489.188 c 0
 321.576 514.126 301.413 551.221 255.016 551.221 c 0
 208.618 551.22 188.43 514.13 164.203 489.188 c 0
 158.052 482.855 148.628 480.039 139.703 480 c 0
EndSplineSet
Refer: 4 117 N 1 0 0 1 0 0 3
Validated: 1
EndChar

StartChar: cedilla
Encoding: 184 184 411
Width: 366
VWidth: 0
Flags: W
HStem: -173.882 59.502<126.046 209.051> -75.123 51.9785<160.743 208.991>
VStem: 106.762 53.981<-23.1445 16.6816> 209.584 54.012<-113.962 -75.6916>
LayerCount: 2
Fore
SplineSet
197.408 -173.882 m 0
 167.502 -173.882 106.762 -143.318 106.762 -143.318 c 2
 103.662 -142.487 102.837 -140.114 103.065 -138.35 c 2
 103.065 -114.38 l 1
 204.769 -114.38 l 2
 207.468 -114.38 209.584 -112.202 209.584 -109.503 c 2
 209.584 -80 l 2
 209.584 -77.3008 208.4 -75.123 204.708 -75.123 c 2
 161.029 -75.123 l 2
 136.492 -75.123 106.762 -56.0068 106.762 -23.1445 c 2
 106.762 16.6816 l 1
 160.743 16.6816 l 1
 160.743 -23.1445 l 1
 161.152 -23.1445 197.347 -21.709 197.347 -21.709 c 2
 240.668 -21.709 263.596 -49.8447 263.596 -85.5059 c 2
 263.596 -103.998 l 2
 263.596 -139.658 240.729 -173.882 197.408 -173.882 c 0
EndSplineSet
Validated: 1
EndChar

StartChar: Ccedilla
Encoding: 199 199 412
Width: 484
VWidth: 0
HStem: -184.212 59.502<237.872 320.877> -85.4521 51.9785<272.569 320.817> -3.8824e-09 110<186.129 218.588 272.569 402.909> 490 110<186.129 413.619>
VStem: 75 110.062<111.129 488.871> 218.588 53.981<-33.4736 -1.08835e-06> 321.41 54.012<-124.292 -86.0207>
LayerCount: 2
Fore
SplineSet
309.234 -184.212 m 0
 279.328 -184.212 218.588 -153.647 218.588 -153.647 c 2
 215.488 -152.816 214.663 -150.443 214.891 -148.68 c 2
 214.891 -124.71 l 1
 316.595 -124.71 l 2
 319.294 -124.71 321.41 -122.531 321.41 -119.832 c 2
 321.41 -90.3291 l 2
 321.41 -87.6299 320.226 -85.4521 316.534 -85.4521 c 2
 272.855 -85.4521 l 2
 248.318 -85.4521 218.588 -66.3359 218.588 -33.4736 c 2
 218.588 -1.08835e-06 l 1
 206.156 0 l 2
 133.489 0 75 58.4893 75 131.156 c 2
 75 468.844 l 2
 75 541.511 133.489 600 206.156 600 c 2
 365 600 l 2
 418.035 599.018 445 541.125 445 492.636 c 0
 445 491.754 445 490.875 445 490 c 1
 195 490 l 2
 189.5 490 185.062 485.562 185.062 480.062 c 2
 185.062 119.938 l 2
 185.062 114.438 189.5 110 195 110 c 2
 455 110 l 1
 455 60 425 0 375 0 c 2
 272.569 -3.8824e-09 l 1
 272.569 -33.4736 l 1
 272.978 -33.4736 309.173 -32.0381 309.173 -32.0381 c 2
 352.494 -32.0381 375.422 -60.1738 375.422 -95.835 c 2
 375.422 -114.327 l 2
 375.422 -149.987 352.555 -184.212 309.234 -184.212 c 0
EndSplineSet
Validated: 1
EndChar

StartChar: ccedilla
Encoding: 231 231 413
Width: 452
VWidth: 0
HStem: -191.212 59.502<208.825 291.83> -92.4521 51.9785<243.521 291.77> -7 108.844<170.413 189.541 243.521 370.961> 310 108.844<171.272 370.961>
VStem: 60 110.062<103.408 308.843> 189.541 53.98<-40.4736 -7> 292.363 54.012<-131.292 -93.0207>
LayerCount: 2
Fore
SplineSet
280.187 -191.212 m 0
 250.281 -191.212 189.541 -160.647 189.541 -160.647 c 2
 186.44 -159.816 185.616 -157.443 185.844 -155.68 c 2
 185.844 -131.71 l 1
 287.548 -131.71 l 2
 290.247 -131.71 292.363 -129.531 292.363 -126.832 c 2
 292.363 -97.3291 l 2
 292.363 -94.6299 291.179 -92.4521 287.486 -92.4521 c 2
 243.808 -92.4521 l 2
 219.271 -92.4521 189.541 -73.3359 189.541 -40.4736 c 2
 189.541 -6.92584 l 1
 104.797 -4.60636 60 51.8457 60 123 c 2
 60 288.844 l 2
 60 361.511 106.722 418.844 195 418.844 c 2
 340.062 418.844 l 2
 424.062 418.844 428 310 428 310 c 1
 180 310 l 2
 174.5 310 170.062 305.562 170.062 300.062 c 2
 170.062 111.781 l 2
 170.062 106.281 174.5 101.844 180 101.844 c 2
 428 101.844 l 1
 428 101.844 424.062 -7 340.062 -7 c 2
 243.521 -7 l 1
 243.521 -40.4736 l 1
 243.931 -40.4736 280.126 -39.0381 280.126 -39.0381 c 2
 323.447 -39.0381 346.375 -67.1738 346.375 -102.835 c 2
 346.375 -121.327 l 2
 346.375 -156.987 323.508 -191.212 280.187 -191.212 c 0
EndSplineSet
Validated: 1
EndChar

StartChar: numbersign
Encoding: 35 35 414
Width: 543
VWidth: 0
Flags: W
HStem: 0 21G<75.8447 147.57 318.324 347.57> 172 78<31.6256 100.272 220.679 300.272 420.679 489.3> 342 78<54.3071 122.929 243.335 322.929 443.335 511.957>
LayerCount: 2
Fore
SplineSet
212.335 600 m 0
 240.357 600 260.652 579.767 260.652 553.412 c 0
 260.652 551.11 260.497 548.762 260.179 546.375 c 2
 243.335 420 l 1
 333.335 420 l 1
 350.179 546.375 l 2
 354.139 576.077 381.865 600 412.335 600 c 2
 467.459 600 l 1
 443.335 420 l 1
 484.335 420 l 2
 504.207 420 518.608 405.646 518.608 386.957 c 0
 518.608 385.325 518.498 383.66 518.272 381.969 c 2
 517.991 380.031 l 2
 515.183 358.97 495.535 342 473.929 342 c 2
 432.929 342 l 1
 420.679 250 l 1
 461.679 250 l 2
 481.548 250 495.921 235.65 495.921 216.965 c 0
 495.921 215.331 495.812 213.663 495.585 211.969 c 2
 495.335 210.031 l 2
 492.526 188.97 472.879 172 451.272 172 c 2
 410.272 172 l 1
 394.491 53.625 l 2
 390.531 23.9229 362.805 0 332.335 0 c 0
 304.313 0 284.019 20.2334 284.019 46.5879 c 0
 284.019 48.8896 284.174 51.2383 284.491 53.625 c 2
 300.272 172 l 1
 210.272 172 l 1
 194.491 53.625 l 2
 190.531 23.9229 162.805 0 132.335 0 c 2
 75.8447 0 l 1
 100.272 172 l 1
 59.2725 172 l 2
 39.4014 172 25 186.354 25 205.043 c 0
 25 206.675 25.1094 208.34 25.335 210.031 c 2
 25.585 211.969 l 2
 28.3936 233.03 48.0723 250 69.6787 250 c 2
 110.679 250 l 1
 122.929 342 l 1
 81.9287 342 l 2
 62.0576 342 47.6562 356.354 47.6562 375.043 c 0
 47.6562 376.675 47.7656 378.34 47.9912 380.031 c 2
 48.2725 381.969 l 2
 51.0811 403.03 70.7285 420 92.335 420 c 2
 133.335 420 l 1
 150.179 546.375 l 2
 154.139 576.077 181.865 600 212.335 600 c 0
232.929 342 m 1
 220.679 250 l 1
 310.679 250 l 1
 322.929 342 l 1
 232.929 342 l 1
EndSplineSet
Validated: 524289
EndChar

StartChar: dollar
Encoding: 36 36 415
Width: 478
VWidth: 0
Flags: W
HStem: -0.96875 102<98.8933 208 270 319.383> 238.406 110.594<150 322> 498 102<150 208 270 364.962>
VStem: 40 110<349 498> 208 62<-76.6108 -0.96875 600 672.611> 322 110<102.557 111 111 236.161>
LayerCount: 2
Fore
SplineSet
270 674 m 1
 270 600 l 1
 332 600 l 2
 380.502 599.149 412 567.774 412 498 c 1
 160 498 l 2
 154.332 498 150 493.241 150 487.938 c 2
 150 358.625 l 2
 150 354.029 155 349 160 349 c 2
 322 349 l 2
 392.804 349 432 293.512 432 233.344 c 2
 432 109.031 l 2
 432 39.0312 392 -0.96875 312 -0.96875 c 2
 270 -0.96875 l 1
 270 -47 l 2
 270 -64.1738 256.174 -78 239 -78 c 2
 208 -78 l 1
 208 -0.96875 l 1
 130 -0.96875 l 2
 78.1426 -0.96875 60 41.0029 60 101.031 c 1
 312 101.031 l 2
 317.304 101.031 322 105.696 322 111 c 2
 322 229.625 l 2
 322 234.398 316.95 238.406 312 238.406 c 2
 150 238.406 l 2
 88.5811 238.406 40 281.598 40 340.562 c 2
 40 510 l 2
 41.2031 558.135 80.2041 600 150 600 c 2
 208 600 l 1
 208 643 l 2
 208 660.174 221.826 674 239 674 c 2
 270 674 l 1
EndSplineSet
Validated: 524289
EndChar

StartChar: Euro
Encoding: 8364 8364 416
Width: 486
VWidth: 0
Flags: W
HStem: 0 110<186.9 403.909> 192 78<23.9378 76 186 329.233> 322 78<23.9378 76 186 329.233> 490 110<186.9 414.628>
VStem: 76 110<110.9 192 270 322 400 489.1>
LayerCount: 2
Fore
SplineSet
207 600 m 2
 366 600 l 2
 419.035 599.018 446.027 541.125 446.027 492.636 c 0
 446.027 491.754 446.018 490.875 446 490 c 1
 196 490 l 2
 190 490 186 486 186 480 c 2
 186 400 l 1
 294 400 l 2
 316 400 333 383 333 361 c 2
 333 322 l 1
 186 322 l 1
 186 270 l 1
 333 270 l 1
 333 231 l 2
 333 209 316 192 294 192 c 2
 186 192 l 1
 186 120 l 2
 186 114 190 110 196 110 c 2
 456 110 l 1
 456 60 426 0 376 0 c 2
 207 0 l 2
 134 0 76 58 76 131 c 2
 76 192 l 1
 59 192 l 2
 38 192 20 209 20 231 c 2
 20 270 l 1
 76 270 l 1
 76 322 l 1
 20 322 l 1
 20 361 l 2
 20 383 38 400 59 400 c 2
 76 400 l 1
 76 469 l 2
 76 542 134 600 207 600 c 2
EndSplineSet
Validated: 524289
EndChar

StartChar: percent
Encoding: 37 37 417
Width: 638
VWidth: 0
Flags: W
HStem: 0 81.1904<434.949 526.397> 228.81 81.1904<434.949 526.397> 290 81.1904<112.024 203.472> 518.81 81.1904<112.024 203.472>
VStem: 30 81.2363<372.024 517.976> 204.26 81.2363<372.024 517.976> 352.925 81.2363<82.0237 227.976> 527.185 81.2363<82.0237 227.976>
LayerCount: 2
Fore
SplineSet
449.73 310 m 2xdf
 511.615 310 l 2
 565.25 310 608.421 266.829 608.421 213.194 c 2
 608.421 96.8057 l 2
 608.421 43.1709 565.25 0 511.615 0 c 2
 449.73 0 l 2
 396.096 0 352.925 43.1709 352.925 96.8057 c 2
 352.925 213.194 l 2
 352.925 266.829 396.096 310 449.73 310 c 2xdf
441.496 228.81 m 2
 437.437 228.81 434.161 225.534 434.161 221.475 c 2
 434.161 88.5254 l 2
 434.161 84.4658 437.437 81.1904 441.496 81.1904 c 2
 519.85 81.1904 l 2
 523.909 81.1904 527.185 84.4658 527.185 88.5254 c 2
 527.185 221.475 l 2
 527.185 225.534 523.909 228.81 519.85 228.81 c 2
 441.496 228.81 l 2
126.806 600 m 2
 188.69 600 l 2
 242.325 600 285.496 556.829 285.496 503.194 c 2
 285.496 386.806 l 2
 285.496 333.171 242.325 290 188.69 290 c 2
 126.806 290 l 2xbf
 73.1709 290 30 333.171 30 386.806 c 2
 30 503.194 l 2
 30 556.829 73.1709 600 126.806 600 c 2
118.571 518.81 m 2
 114.512 518.81 111.236 515.534 111.236 511.475 c 2
 111.236 378.525 l 2
 111.236 374.466 114.512 371.19 118.571 371.19 c 2
 196.925 371.19 l 2
 200.984 371.19 204.26 374.466 204.26 378.525 c 2
 204.26 511.475 l 2
 204.26 515.534 200.984 518.81 196.925 518.81 c 2
 118.571 518.81 l 2
449.303 593.492 m 2
 457.591 608.605 461.117 615.034 467.606 615.034 c 0
 472.411 615.034 478.841 611.508 490.032 605.371 c 1
 505.144 597.083 511.574 593.557 511.574 587.068 c 0
 511.574 582.263 508.048 575.833 501.91 564.641 c 2
 194.14 3.44824 l 2
 185.852 -11.664 182.326 -18.0938 175.837 -18.0938 c 0
 171.032 -18.0938 164.602 -14.5675 153.41 -8.42969 c 1
 138.298 -0.141684 131.868 3.38464 131.868 9.87325 c 0
 131.868 14.6785 135.394 21.1083 141.532 32.2998 c 2
 449.303 593.492 l 2
EndSplineSet
Validated: 524289
EndChar

StartChar: ampersand
Encoding: 38 38 418
Width: 520
VWidth: 0
Flags: W
HStem: 0 110<171.312 354.121> 173 76<318.924 355.188 465.25 490.641> 300 86.0625<182.906 268.957> 500 102<182.906 368.149>
VStem: 60 110<110.001 130 130 299.578> 72.9375 109.969<386.569 500> 355.188 110.062<111.129 173>
LayerCount: 2
Fore
SplineSet
182.875 602 m 2xf6
 335.188 602 l 2
 383.689 601.149 415.188 569.774 415.188 500 c 1
 192.594 500 l 2
 187.789 500 183.966 499.118 182.906 494.844 c 1
 182.906 396.938 l 2xf6
 182.906 390.658 187.943 386.062 193.531 386.062 c 2
 232.438 386.062 l 2
 253.438 386.062 275.188 365.514 275.188 345 c 2
 275.188 300 l 1
 180 300 l 2
 175.125 299.875 170.125 295.062 170 290.062 c 2
 170 118.781 l 2
 170 113.281 174.688 110 180.188 110 c 2
 345.25 110 l 2
 350.75 110 355.188 114.438 355.188 119.938 c 2
 355.188 173 l 1
 353.188 173 l 2
 332.136 173 315.188 189.948 315.188 211 c 0
 315.188 232.052 332.136 249 353.188 249 c 2
 520.188 249 l 1
 520.188 214.985 517.175 179.027 467.188 173 c 2
 465.25 173 l 1
 465.25 131.156 l 2
 465.25 58.4893 406.761 0 334.094 0 c 2
 191.344 0 l 2
 118.677 0 60 57.333 60 130 c 2
 60 281.008 l 2xfa
 60 325 105.188 340 125.188 345 c 1
 105.188 350 73 370 73 410 c 2
 72.9375 517.344 l 1
 72.9375 517.969 l 1
 73.0312 517.938 l 1
 75.9404 564.631 114.723 602 182.875 602 c 2xf6
EndSplineSet
Validated: 524289
EndChar

StartChar: OE
Encoding: 338 338 419
Width: 671
VWidth: 0
Flags: W
HStem: 0 110<186.129 298.156 408.156 601.412> 238 110<408.156 560.558> 490 110<186.129 298.156 408.156 583.455>
VStem: 75 110.062<111.129 131.156 131.156 488.871> 298.156 110<110 238 348 490>
LayerCount: 2
Fore
SplineSet
206.156 600 m 2
 595.156 600 l 1
 595.156 545 l 2
 595.156 514.53 570.626 490 540.156 490 c 2
 408.156 490 l 1
 408.156 348 l 1
 518.156 348 l 2
 548.489 345.111 573.156 323.47 573.156 293 c 0
 573.156 262.53 548.412 241.602 518.156 238 c 2
 408.156 238 l 1
 408.156 110 l 1
 558.156 110 l 2
 588.489 107.111 613.156 85.4697 613.156 55 c 0
 613.156 24.5303 588.586 1.57422 558.156 0 c 0
 440.823 0 323.489 0 206.156 0 c 0
 133.489 0 75 58.4893 75 131.156 c 2
 75 468.844 l 2
 75 541.511 133.489 600 206.156 600 c 2
195 490 m 2
 189.5 490 185.062 485.562 185.062 480.062 c 2
 185.062 119.938 l 2
 185.062 114.438 189.5 110 195 110 c 2
 298.156 110 l 1
 298.156 223.789 298.156 376.211 298.156 490 c 1
 195 490 l 2
EndSplineSet
Validated: 524289
EndChar

StartChar: oe
Encoding: 339 339 420
Width: 685
VWidth: 0
Flags: W
HStem: -0.9375 110<171.129 281.769 393.614 535.688> 173.031 70.3125<392.936 535.186> 310.344 109.656<171.129 282.31 393.088 534.057>
VStem: 60 110.062<111.129 131.156 131.156 308.871> 282.467 110.406<110.126 173.031 243.344 309.998> 535.186 110<243.344 308.871>
LayerCount: 2
Fore
SplineSet
191.156 420 m 2
 261.373 420 l 2
 289.895 420 316.211 410.998 337.686 395.656 c 1
 359.16 410.999 385.507 420 414.029 420 c 2
 514.029 420 l 2
 586.696 420 645.186 361.511 645.186 288.844 c 2
 645.186 173.031 l 1
 392.936 173.031 l 1
 392.936 130.062 l 2
 392.936 118.062 400.873 109.062 412.873 109.062 c 2
 486.029 109.062 l 1
 606.029 109.062 l 1
 606.029 39.0625 566.029 -0.9375 486.029 -0.9375 c 2
 412.873 -0.9375 l 2
 382.563 -0.9375 356.576 8.12793 335.967 23.1562 c 1
 314.812 8.5459 289.143 0 261.373 0 c 2
 191.156 0 l 2
 118.49 0 60 58.4893 60 131.156 c 2
 60 288.844 l 2
 60 361.511 118.49 420 191.156 420 c 2
412.873 310.344 m 2
 402.873 310.344 392.873 300.344 392.873 290.344 c 2
 392.873 243.344 l 1
 535.186 243.344 l 1
 535.186 290.344 l 2
 535.186 300.344 525.186 310.344 515.186 310.344 c 2
 412.873 310.344 l 2
180 310 m 2
 174.5 310 170.062 305.562 170.062 300.062 c 2
 170.062 119.938 l 2
 170.062 114.438 174.5 110 180 110 c 2
 272.529 110 l 2
 278.029 110 282.467 114.438 282.467 119.938 c 2
 282.467 300.062 l 2
 282.467 305.562 278.029 310 272.529 310 c 2
 180 310 l 2
EndSplineSet
Validated: 524289
EndChar

StartChar: ae
Encoding: 230 230 421
Width: 666
VWidth: 0
Flags: W
HStem: -6 108<153 223.906 399.64 522.602> 168.188 100.031<153 243.016> 173.031 75.9688<397.562 518.656> 310 110<138.182 286.535 397.551 517.527>
VStem: 43 110<107.625 168.188> 287.5 110.062<107.653 168.188 249 309.75> 518.656 110<249 315.343>
LayerCount: 2
Fore
SplineSet
183 420 m 2xde
 237.5 420 l 2
 277.791 420 311.566 410.234 337.562 392.062 c 1
 359.851 409.571 387.984 420 418.656 420 c 2
 497.5 420 l 2
 570.167 420 628.656 361.511 628.656 288.844 c 2
 628.656 173.031 l 1
 397.562 173.031 l 1xbe
 397.562 123 l 2
 397.562 111 405.5 102 417.5 102 c 2
 469.5 102 l 1
 589.5 102 l 1
 589.5 32 553.5 -6 473.5 -6 c 2
 421.5 -6 l 2
 337.286 -6 325.365 15.7949 287.5 37.6562 c 1
 177.5 0 l 2
 162.696 -3.77977 149.219 -5.55053 137.018 -5.55053 c 0
 71.7478 -5.55053 43 45.1251 43 110 c 2
 43 182 l 2
 43 239.476 76.8832 268.219 134.902 268.219 c 0
 148.064 268.219 162.468 266.74 178 263.781 c 2
 287.5 234.938 l 1
 287.5 288.844 l 1
 287.5 300 l 2
 287.375 305 282.375 309.875 277.5 310 c 2
 113 310 l 1
 113 310 112.993 310.357 112.993 311.031 c 0
 112.993 322.178 114.932 420 183 420 c 2xde
417.5 316 m 2
 407.5 316 397.5 306 397.5 296 c 2
 397.5 260 l 1
 397.5 249 l 1
 518.656 249 l 1
 518.656 296 l 2
 518.656 306 508.656 316 498.656 316 c 2
 417.5 316 l 2
163.25 168.188 m 2xde
 157.744 168.188 153 163.693 153 158.188 c 2
 153 117.875 l 2
 153 112.869 158.243 107.625 163 107.625 c 2
 287.5 107.625 l 1
 287.5 132 l 1
 287.5 168.188 l 1
 163.25 168.188 l 2xde
EndSplineSet
Validated: 524289
EndChar

StartChar: AE
Encoding: 198 198 422
Width: 814
VWidth: 0
Flags: W
HStem: 0 110<491.598 769.854> 129.469 110<245.598 381.598> 238 110<491.598 729> 490 110<491.598 751.896>
VStem: 381.598 110<110 129.469 348 471.25>
LayerCount: 2
Fore
SplineSet
381.598 600 m 1xd8
 381.598 600 398.033 600 399.66 600 c 0
 405.137 600 440.529 600 460.441 600 c 0
 559.754 600 763.598 600 763.598 600 c 1
 763.598 545 l 2
 763.598 514.53 739.067 490 708.598 490 c 2
 491.598 490 l 1
 491.598 348 l 1
 686.598 348 l 2
 716.931 345.111 741.598 323.47 741.598 293 c 0
 741.598 262.53 716.854 241.602 686.598 238 c 2
 491.598 238 l 1xb8
 491.598 110 l 1
 726.598 110 l 2
 756.931 107.111 781.598 85.4697 781.598 55 c 0
 781.598 24.5303 757.027 1.57422 726.598 0 c 2
 381.598 0 l 1
 381.598 0 381.598 85.6514 381.598 129.469 c 1
 185.629 129.469 l 1
 127.566 32.6562 l 2
 113.176 6.85718 87.7831 -4.61626 63.4212 -4.61626 c 0
 30.7849 -4.61626 -0.000271052 15.9746 -0.000271052 50.299 c 0
 -0.000271052 60.7169 2.83563 72.3999 9.31641 85.1562 c 2
 285.16 539.562 l 2
 303.402 567.232 345.824 591.539 381.598 598.188 c 1
 381.598 598.198 381.598 600 381.598 600 c 1xd8
381.598 471.25 m 1
 245.598 239.469 l 1
 381.598 239.469 l 1xd8
 381.598 336.438 l 2
 381.598 402.85 381.598 425.809 381.598 471.25 c 1
EndSplineSet
Validated: 524289
EndChar

StartChar: asciitilde
Encoding: 126 126 423
Width: 479
VWidth: 0
Flags: W
HStem: 101.219 108.51<275.673 391.6> 171.24 108.604<88.2926 204.219>
LayerCount: 2
Fore
SplineSet
140.556 279.844 m 0x40
 141.944 279.851 143.359 279.818 144.774 279.75 c 0
 215.98 270.336 268.56 223.297 338.868 209.781 c 0
 339.41 209.746 339.965 209.729 340.532 209.729 c 0
 361.131 209.729 397.882 232.607 417.712 246.438 c 0
 422.164 249.543 426.917 250.909 431.674 250.909 c 0
 450.754 250.909 469.893 228.935 469.893 209.063 c 0
 469.893 201.491 467.114 194.224 460.493 188.594 c 1
 460.712 188.312 l 1
 433.569 157.065 382.406 101.331 339.337 101.125 c 0
 337.947 101.118 336.532 101.15 335.118 101.219 c 0x80
 263.911 110.633 211.332 157.672 141.024 171.188 c 0
 140.482 171.223 139.928 171.24 139.36 171.24 c 0
 118.76 171.24 82.0097 148.361 62.1807 134.531 c 0
 57.7285 131.426 52.9751 130.06 48.218 130.06 c 0
 29.1384 130.06 9.99976 152.034 9.99976 171.905 c 0
 9.99976 179.478 12.7789 186.745 19.3994 192.375 c 1
 19.1807 192.656 l 1
 46.3223 223.903 97.4863 279.638 140.556 279.844 c 0x40
EndSplineSet
Validated: 524289
EndChar

StartChar: germandbls
Encoding: 223 223 427
Width: 495
VWidth: 0
Flags: W
HStem: 0 110<236.741 339.979> 261.25 90.75<170 319.997> 501.062 98.125<171.025 317.383>
VStem: 60 110<-166.185 261.25 352 499.13> 320 110<352 362 362 499.513> 340.25 110<110.003 120 120 261.195>
LayerCount: 2
Fore
SplineSet
60 490 m 2xf4
 60 556.008 108.971 599.188 180.999 599.188 c 2
 310 599.188 l 2
 390.004 599.188 430 550 430 484.469 c 2
 430 348 l 2xf8
 430 329.3 410 300 380 300 c 1
 410 300 450.25 268.342 450.25 232.656 c 2
 450.25 110 l 2
 450.25 37.4854 385.25 0 335.25 0 c 2
 272.627 0 l 2
 234.258 0 212.501 58.7412 212.501 104.119 c 0
 212.501 106.107 212.543 108.069 212.627 110 c 1
 330 110 l 2
 335.506 110 340.25 114.494 340.25 120 c 2
 340.25 251 l 2
 340.25 256.006 335.007 261.25 330.25 261.25 c 2
 170 261.25 l 1
 170 -130 l 2
 170 -159.927 142.635 -174.78 115.202 -174.78 c 0
 87.6348 -174.78 60 -159.78 60 -130 c 2
 60 490 l 2xf4
170 489 m 2
 170 352 l 1
 309.75 352 l 2
 315.256 352 320 356.494 320 362 c 2
 320 490.812 l 2
 320 495.818 314.757 501.062 310 501.062 c 2
 180.125 501.062 l 2
 173.85 501.062 169.997 495.794 169.997 489.311 c 0
 170 489 l 2
EndSplineSet
Validated: 524289
EndChar
